<svg width="100" height="100" viewBox="0 0 100 100" fill="none" xmlns="http://www.w3.org/2000/svg">
<path d="M50 100C77.6142 100 100 77.6142 100 50C100 22.3858 77.6142 0 50 0C22.3858 0 0 22.3858 0 50C0 77.6142 22.3858 100 50 100Z" fill="#E8F9EC"/>
<path d="M70 71H24C22.8954 71 22 71.8954 22 73V75C22 76.1046 22.8954 77 24 77H70C71.1046 77 72 76.1046 72 75V73C72 71.8954 71.1046 71 70 71Z" fill="#65E15D"/>
<path d="M47 31C58.04 31 67 39.96 67 51V71H27V51C27 39.96 35.96 31 47 31Z" fill="#00C73C"/>
<path d="M50 37C50 37 62 39 62 52" stroke="#4FDC46" stroke-width="4" stroke-miterlimit="10" stroke-linecap="round"/>
<path d="M78.0102 35.73L73.1802 37.02" stroke="#4FDC46" stroke-width="4" stroke-miterlimit="10" stroke-linecap="round"/>
<path d="M62.1001 19.8198L60.8101 24.6498" stroke="#4FDC46" stroke-width="4" stroke-miterlimit="10" stroke-linecap="round"/>
<path d="M71 26.8296L67.47 30.3696" stroke="#4FDC46" stroke-width="4" stroke-miterlimit="10" stroke-linecap="round"/>
</svg>
