<svg width="20" height="20" viewBox="0 0 20 20" fill="none" xmlns="http://www.w3.org/2000/svg">
<path d="M17.23 13.37C18.2 11.69 18.62 9.66999 18.02 7.46999C17.23 4.55999 14.78 2.28999 11.81 1.80999C6.49 0.939994 1.95 5.46999 2.81 10.8C3.29 13.77 5.55 16.21 8.45 17.02C10.64 17.63 12.67 17.21 14.34 16.26L16.75 17.09C17.57 17.37 18.36 16.58 18.07 15.76L17.23 13.37Z" fill="#DDDDDD" stroke="#DDDDDD" stroke-width="1.4" stroke-linecap="round" stroke-linejoin="round"/>
<path d="M6.8 10.47C7.33572 10.47 7.77 10.0357 7.77 9.5C7.77 8.96428 7.33572 8.53 6.8 8.53C6.26429 8.53 5.83 8.96428 5.83 9.5C5.83 10.0357 6.26429 10.47 6.8 10.47Z" fill="#999999"/>
<path d="M10.5 10.47C11.0357 10.47 11.47 10.0357 11.47 9.5C11.47 8.96428 11.0357 8.53 10.5 8.53C9.96428 8.53 9.53 8.96428 9.53 9.5C9.53 10.0357 9.96428 10.47 10.5 10.47Z" fill="#999999"/>
<path d="M14.2 10.47C14.7357 10.47 15.17 10.0357 15.17 9.5C15.17 8.96428 14.7357 8.53 14.2 8.53C13.6643 8.53 13.23 8.96428 13.23 9.5C13.23 10.0357 13.6643 10.47 14.2 10.47Z" fill="#999999"/>
</svg>
