<svg width="18" height="18" viewBox="0 0 18 18" fill="none" xmlns="http://www.w3.org/2000/svg">
<g clip-path="url(#clip0_522_725)">
<path d="M12.37 3.48L14.7 5.81L6.49003 14.02L3.46003 14.72L4.16003 11.68L12.37 3.47M12.37 2C12.06 2 11.75 2.12 11.51 2.36L3.13003 10.73C2.97003 10.89 2.86003 11.1 2.80003 11.32L2.03003 14.68C1.85003 15.46 2.46003 16.17 3.21003 16.17C3.30003 16.17 3.39003 16.16 3.49003 16.14L6.85003 15.36C7.07002 15.31 7.28003 15.2 7.44003 15.03L15.82 6.67C16.3 6.19 16.3 5.42 15.82 4.95L13.23 2.36C12.99 2.12 12.68 2 12.37 2Z" fill="#00C73C"/>
<path d="M10.09 5.25L12.95 8.11" stroke="#00C73C" stroke-width="1.4" stroke-linecap="round" stroke-linejoin="round"/>
</g>
<defs>
<clipPath id="clip0_522_725">
<rect width="14.18" height="14.18" fill="white" transform="translate(2 2)"/>
</clipPath>
</defs>
</svg>
