<svg width="29" height="18" viewBox="0 0 29 18" fill="none" xmlns="http://www.w3.org/2000/svg">
<path d="M4.26562 17H0.46875L6.35156 0.03125H10.875L16.7344 17H12.9609L11.6836 13.0859H5.54297L4.26562 17ZM6.43359 10.3438H10.793L8.67188 3.85156H8.55469L6.43359 10.3438Z" fill="#666666"/>
<path d="M17.4966 13.4375C17.5083 10.6016 19.7817 9.67578 22.2309 9.52344C23.145 9.46484 24.8559 9.38281 25.395 9.35938V8.32812C25.3833 7.26172 24.6567 6.65234 23.3559 6.64062C22.1723 6.65234 21.4341 7.17969 21.2466 8.04688H17.9419C18.1528 5.84375 20.0747 4.10938 23.4497 4.10938C26.227 4.10938 28.852 5.35156 28.8403 8.42188V17H25.5591V15.2422H25.4653C24.8442 16.4141 23.6255 17.2461 21.7388 17.2344C19.3013 17.2461 17.5083 15.957 17.4966 13.4375ZM20.8247 13.3438C20.8247 14.3164 21.6098 14.832 22.7231 14.8438C24.3052 14.832 25.4067 13.8008 25.395 12.4531V11.5273C24.8677 11.5508 23.3794 11.6328 22.7934 11.6797C21.5864 11.7852 20.8247 12.3594 20.8247 13.3438Z" fill="#666666"/>
</svg>
