<svg width="26" height="12" viewBox="0 0 26 12" fill="none" xmlns="http://www.w3.org/2000/svg">
<path d="M25.96 8.50994L25.79 9.90994C25.79 9.90994 25.75 11.7099 24.18 11.6099L20.71 11.1599C20.71 11.1599 19.28 11.1399 19.02 9.46994L18.75 7.21994C18.75 7.21994 17.47 5.69994 12.98 5.66994C12.98 5.66994 9.83002 5.55994 7.41002 6.86994L7.04002 9.36994C7.04002 9.36994 6.99002 10.9199 5.65002 11.0399L2.46002 11.4299C2.46002 11.4299 0.40002 11.8399 0.14002 9.78994L2.00864e-05 8.24994C2.00864e-05 8.24994 -0.0399799 4.90994 3.45002 3.24994C3.45002 3.24994 6.90002 1.11994 13.88 0.99994C13.88 0.99994 19.44 0.85994 23.84 4.03994C23.84 4.03994 26.34 5.76994 25.97 8.50994H25.96Z" fill="#F84D4D"/>
</svg>
