<svg width="100" height="100" viewBox="0 0 100 100" fill="none" xmlns="http://www.w3.org/2000/svg">
<path d="M50 100C77.6142 100 100 77.6142 100 50C100 22.3858 77.6142 0 50 0C22.3858 0 0 22.3858 0 50C0 77.6142 22.3858 100 50 100Z" fill="#E8F9EC"/>
<path d="M70.0299 34.8099C70.4899 33.5399 70.1999 32.0799 69.2999 30.9599C70.5199 30.5699 71.4799 29.6799 71.9099 28.4899C72.8899 25.7799 71.5999 23.5499 68.3799 22.3899L65.0499 21.1899C64.8699 21.1299 64.6099 21.0599 64.3499 21.1799C64.0699 21.3099 63.9799 21.5699 63.8999 21.7799L58.9699 35.4399C58.9099 35.6099 58.8399 35.8799 58.9599 36.1299C59.0799 36.3899 59.3199 36.4799 59.4799 36.5299L59.6799 36.0699L59.5099 36.5399L62.3699 37.5699C63.5799 38.0099 64.6199 38.1999 65.4999 38.1999C68.1599 38.1999 69.4299 36.4899 70.0299 34.8199V34.8099ZM68.3399 27.3699C68.1699 27.8399 67.9399 28.1299 67.6199 28.2699C67.2199 28.4499 66.6599 28.3999 65.9499 28.1499L65.5999 28.0199L66.5599 25.3499L67.2299 25.5899C67.8299 25.8099 68.2099 26.0799 68.3599 26.4099C68.4799 26.6699 68.4699 26.9799 68.3399 27.3599V27.3699ZM66.5199 33.6299C66.2199 34.4599 65.6499 35.1299 63.5699 34.3799L63.2899 34.2799L64.4599 31.0499L64.5499 31.0799C66.8099 31.8999 66.8099 32.8299 66.5199 33.6299Z" fill="#65E15D"/>
<path d="M80.8999 54.81L80.5199 53.17C80.4899 53.07 80.4099 52.74 80.0999 52.62C79.7699 52.49 79.4599 52.69 79.3599 52.75C78.8399 53.04 77.7999 53.54 76.6399 53.62C74.2499 53.81 72.3499 52.27 71.9199 49.79C71.6899 48.48 71.8599 47.31 72.4099 46.41C72.9599 45.51 73.8699 44.92 75.0499 44.71C75.9999 44.54 76.7699 44.52 77.7999 44.62C78.0699 44.65 78.4799 44.69 78.7499 44.41C79.0099 44.14 78.9399 43.76 78.9199 43.65L78.6699 41.98C78.6399 41.77 78.5799 41.3 77.8799 41.17C76.9299 41.05 75.8399 41.09 74.6399 41.3C70.1699 42.09 67.6099 45.83 68.4199 50.41C69.1299 54.46 72.0899 57 75.8399 57C76.3399 57 76.8499 56.96 77.3799 56.86C78.5399 56.65 79.5399 56.32 80.4099 55.85C80.7599 55.66 81.0599 55.41 80.9199 54.82L80.8999 54.81Z" fill="#65E15D"/>
<path d="M66.33 72.78L49.78 31.16C49.18 29.88 48.6 29.27 46.94 29.27H41.4C40.19 29.27 39.19 29.95 38.64 31.18L22.02 72.76C21.61 73.74 21.62 74.58 22.06 75.24C22.74 76.27 24.05 76.27 24.54 76.27H30.08C31.41 76.27 32.31 75.96 33.03 74.33L36.26 65.87H51.97L55.23 74.4C55.99 76.13 57.11 76.27 58.2 76.27H63.8C64.4 76.27 65.64 76.27 66.3 75.29C66.95 74.33 66.5 73.21 66.33 72.79V72.78ZM48.13 55.83H40.09L44.13 45.35L48.13 55.83Z" fill="#00C73C"/>
</svg>
