<svg width="20" height="20" viewBox="0 0 20 20" fill="none" xmlns="http://www.w3.org/2000/svg">
<g clip-path="url(#clip0_520_187)">
<path d="M10 4.4C15.5 4.4 17.19 8.8 17.55 10C17.19 11.21 15.5 15.6 10 15.6C4.5 15.6 2.81 11.2 2.45 10C2.81 8.79 4.5 4.4 10 4.4ZM10 3C2.5 3 1 10 1 10C1 10 2.5 17 10 17C17.5 17 19 10 19 10C19 10 17.5 3 10 3V3Z" fill="#222222"/>
<path d="M10 7.4C11.43 7.4 12.6 8.57 12.6 10C12.6 11.43 11.43 12.6 10 12.6C8.57 12.6 7.4 11.43 7.4 10C7.4 8.57 8.57 7.4 10 7.4ZM10 6C7.79 6 6 7.79 6 10C6 12.21 7.79 14 10 14C12.21 14 14 12.21 14 10C14 7.79 12.21 6 10 6Z" fill="#222222"/>
</g>
<g clip-path="url(#clip1_520_187)">
<path d="M10 4.4C15.5 4.4 17.19 8.8 17.55 10C17.19 11.21 15.5 15.6 10 15.6C4.5 15.6 2.81 11.2 2.45 10C2.81 8.79 4.5 4.4 10 4.4ZM10 3C2.5 3 1 10 1 10C1 10 2.5 17 10 17C17.5 17 19 10 19 10C19 10 17.5 3 10 3V3Z" fill="#222222"/>
<path d="M10 7.4C11.43 7.4 12.6 8.57 12.6 10C12.6 11.43 11.43 12.6 10 12.6C8.57 12.6 7.4 11.43 7.4 10C7.4 8.57 8.57 7.4 10 7.4ZM10 6C7.79 6 6 7.79 6 10C6 12.21 7.79 14 10 14C12.21 14 14 12.21 14 10C14 7.79 12.21 6 10 6Z" fill="#222222"/>
<path d="M18 3.78003L2 16.22" stroke="#222222" stroke-width="1.4" stroke-linecap="round" stroke-linejoin="round"/>
</g>
<defs>
<clipPath id="clip0_520_187">
<rect width="18" height="14" fill="white" transform="translate(1 3)"/>
</clipPath>
<clipPath id="clip1_520_187">
<rect width="18" height="14" fill="white" transform="translate(1 3)"/>
</clipPath>
</defs>
</svg>
