<svg width="100" height="100" viewBox="0 0 100 100" fill="none" xmlns="http://www.w3.org/2000/svg">
<path d="M50 100C77.6142 100 100 77.6142 100 50C100 22.3858 77.6142 0 50 0C22.3858 0 0 22.3858 0 50C0 77.6142 22.3858 100 50 100Z" fill="#E8F9EC"/>
<path d="M77.2699 34.79C77.2699 34.79 73.5499 31.9499 71.6699 36.3499" stroke="#65E15D" stroke-width="3" stroke-miterlimit="10" stroke-linecap="round"/>
<path d="M72.566 20.74L70.3507 18.1608C70.1132 17.8843 69.6965 17.8527 69.42 18.0902L65.6043 21.3676C65.3278 21.6051 65.2961 22.0218 65.5336 22.2983L67.749 24.8775C67.9865 25.154 68.4032 25.1856 68.6797 24.9481L72.4954 21.6707C72.7719 21.4332 72.8035 21.0165 72.566 20.74Z" fill="#65E15D"/>
<path d="M62.5 35.5C64.1569 35.5 65.5 34.1569 65.5 32.5C65.5 30.8431 64.1569 29.5 62.5 29.5C60.8431 29.5 59.5 30.8431 59.5 32.5C59.5 34.1569 60.8431 35.5 62.5 35.5Z" fill="#65E15D"/>
<path d="M47.6199 71.6801L57.6799 76.9701C60.2299 78.3101 63.2199 76.1401 62.7299 73.3001L60.8099 62.1001C60.6199 60.9701 60.9899 59.8201 61.8099 59.0201L69.9499 51.0901C72.0099 49.0801 70.8799 45.5701 68.0199 45.1601L56.7699 43.5301C55.6399 43.3701 54.6599 42.6501 54.1499 41.6301L49.1199 31.4401C47.8399 28.8501 44.1599 28.8501 42.8799 31.4401L37.8499 41.6301C37.3399 42.6601 36.3599 43.3701 35.2299 43.5301L23.9799 45.1601C21.1299 45.5701 19.9899 49.0801 22.0499 51.0901L30.1899 59.0201C31.0099 59.8201 31.3799 60.9701 31.1899 62.1001L29.2699 73.3001C28.7799 76.1401 31.7699 78.3101 34.3199 76.9701L44.3799 71.6801C45.3899 71.1501 46.5999 71.1501 47.6199 71.6801Z" fill="#00C73C"/>
</svg>
