<svg width="20" height="26" viewBox="0 0 20 26" fill="none" xmlns="http://www.w3.org/2000/svg">
<g clip-path="url(#clip0_427_501)">
<path d="M10.11 0H9.89C7.46547 0 5.5 1.96547 5.5 4.39V12.01C5.5 14.4345 7.46547 16.4 9.89 16.4H10.11C12.5345 16.4 14.5 14.4345 14.5 12.01V4.39C14.5 1.96547 12.5345 0 10.11 0Z" fill="#999999"/>
<path d="M10 21.7101C4.49 21.7101 0 17.3801 0 12.0601C0 11.5301 0.45 11.1001 1 11.1001C1.55 11.1001 2 11.5301 2 12.0601C2 16.3201 5.59 19.7801 10 19.7801C14.41 19.7801 18 16.3201 18 12.0601C18 11.5301 18.45 11.1001 19 11.1001C19.55 11.1001 20 11.5301 20 12.0601C20 17.3801 15.51 21.7101 10 21.7101Z" fill="#999999"/>
<path d="M10 26C9.45 26 9 25.57 9 25.04V20.75C9 20.22 9.45 19.79 10 19.79C10.55 19.79 11 20.22 11 20.75V25.04C11 25.57 10.55 26 10 26Z" fill="#999999"/>
</g>
<defs>
<clipPath id="clip0_427_501">
<rect width="20" height="26" fill="white"/>
</clipPath>
</defs>
</svg>
