<svg width="38" height="34" viewBox="0 0 38 34" fill="none" xmlns="http://www.w3.org/2000/svg">
<circle cx="19" cy="14" r="6" stroke="#666666" stroke-width="3"/>
<path d="M22.5 9.5L15.5 18.5" stroke="#666666" stroke-width="3"/>
<path d="M18.5 26H20V24.5H18.5V26ZM17.0194 29.9532L15.8569 29.0052L17.0194 29.9532ZM17.6603 31.5412L17.3234 30.0795H17.3234L17.6603 31.5412ZM26.5 26V24.5H25.6972L25.2519 25.1679L26.5 26ZM3.5 7C3.5 5.067 5.067 3.5 7 3.5V0.5C3.41015 0.5 0.5 3.41015 0.5 7H3.5ZM3.5 21V7H0.5V21H3.5ZM7 24.5C5.067 24.5 3.5 22.933 3.5 21H0.5C0.5 24.5899 3.41015 27.5 7 27.5V24.5ZM18.5 24.5H7V27.5H18.5V24.5ZM18.1819 30.9011C19.565 29.2049 20 27.2232 20 26H17C17 26.6444 16.7375 27.9253 15.8569 29.0052L18.1819 30.9011ZM17.3234 30.0795C17.477 30.0441 17.6458 30.0453 17.8094 30.0887C17.9673 30.1306 18.0842 30.2019 18.1608 30.2636C18.3003 30.3759 18.3341 30.4751 18.3346 30.4765C18.3389 30.4878 18.3442 30.503 18.3417 30.5413C18.3397 30.5733 18.3243 30.7265 18.1819 30.9011L15.8569 29.0052C15.1734 29.8435 15.2937 30.9102 15.525 31.5281C15.6566 31.8797 15.8898 32.2866 16.2789 32.5999C16.7018 32.9406 17.3126 33.1607 17.9971 33.0029L17.3234 30.0795ZM25.2519 25.1679C23.3912 27.959 20.1668 29.4242 17.3234 30.0795L17.9971 33.0029C21.1895 32.2671 25.2808 30.533 27.7481 26.8321L25.2519 25.1679ZM31 24.5H26.5V27.5H31V24.5ZM34.5 21C34.5 22.933 32.933 24.5 31 24.5V27.5C34.5899 27.5 37.5 24.5899 37.5 21H34.5ZM34.5 7V21H37.5V7H34.5ZM31 3.5C32.933 3.5 34.5 5.067 34.5 7H37.5C37.5 3.41015 34.5899 0.5 31 0.5V3.5ZM7 3.5H31V0.5H7V3.5Z" fill="#666666"/>
</svg>
