<svg width="100" height="100" viewBox="0 0 136 136" fill="none" xmlns="http://www.w3.org/2000/svg">
<path d="M125.8 68C131.433 68 136.078 72.592 135.236 78.1621C133.616 88.8848 129.445 99.1164 123.013 107.969C114.572 119.587 102.671 128.234 89.0132 132.672C75.3558 137.109 60.6442 137.109 46.9868 132.672C33.3295 128.234 21.4275 119.587 12.9868 107.969C4.54613 96.3518 -1.25541e-06 82.3602 0 68C1.25541e-06 53.6398 4.54614 39.6482 12.9868 28.0306C21.4276 16.413 33.3295 7.7657 46.9869 3.32815C57.3942 -0.0534001 68.4138 -0.858096 79.1125 0.914067C84.6701 1.83464 87.602 7.67135 85.8612 13.0289C84.1204 18.3865 78.3512 21.1988 72.7459 20.6372C66.2222 19.9835 59.596 20.681 53.2908 22.7297C43.7307 25.836 35.3993 31.8891 29.4908 40.0214C23.5823 48.1538 20.4 57.9479 20.4 68C20.4 78.0521 23.5823 87.8462 29.4908 95.9786C35.3993 104.111 43.7306 110.164 53.2908 113.27C62.8509 116.377 73.1491 116.377 82.7092 113.27C92.2694 110.164 100.601 104.111 106.509 95.9786C110.406 90.6151 113.117 84.5287 114.511 78.1223C115.709 72.6179 120.167 68 125.8 68Z" fill="url(#paint0_linear_2673_327)"/>
<defs>
<linearGradient id="paint0_linear_2673_327" x1="22" y1="118" x2="111" y2="29" gradientUnits="userSpaceOnUse">
<stop stop-color="#00DB42"/>
<stop offset="1" stop-color="#CCF4D8" stop-opacity="0"/>
</linearGradient>
</defs>
</svg>
