<svg width="16" height="16" viewBox="0 0 16 16" fill="none" xmlns="http://www.w3.org/2000/svg">
<g clip-path="url(#clip0_291_944)">
<path d="M5 6.17005V3.73005C5 2.11005 6.34 0.800049 8 0.800049C9.66 0.800049 11 2.11005 11 3.73005V6.17005" stroke="#F84D4D" stroke-width="1.6" stroke-linejoin="round"/>
<path d="M11 5.36011H5C2.79086 5.36011 1 7.15097 1 9.36011V11.3601C1 13.5692 2.79086 15.3601 5 15.3601H11C13.2091 15.3601 15 13.5692 15 11.3601V9.36011C15 7.15097 13.2091 5.36011 11 5.36011Z" fill="#FFDCDC"/>
<path d="M8 10.8601C8.55228 10.8601 9 10.4124 9 9.86011C9 9.30782 8.55228 8.86011 8 8.86011C7.44772 8.86011 7 9.30782 7 9.86011C7 10.4124 7.44772 10.8601 8 10.8601Z" fill="#F84D4D"/>
<path d="M8.5 9.86011H7.5V11.8601H8.5V9.86011Z" fill="#F84D4D"/>
</g>
<defs>
<clipPath id="clip0_291_944">
<rect width="14" height="15.36" fill="white" transform="translate(1)"/>
</clipPath>
</defs>
</svg>
