<svg width="62" height="25" viewBox="0 0 62 25" fill="none" xmlns="http://www.w3.org/2000/svg">
<path d="M15.8535 1.26172C15.834 1.37891 15.8438 1.4668 15.8828 1.52539C15.9219 1.56445 15.9512 1.63281 15.9707 1.73047C14.9941 1.90625 14.1055 2.05273 13.3047 2.16992C13.2852 2.22852 13.2754 2.32617 13.2754 2.46289C13.2949 2.58008 13.3145 2.70703 13.334 2.84375C13.373 2.96094 13.4121 3.07812 13.4512 3.19531C13.5098 3.29297 13.5684 3.35156 13.627 3.37109C13.627 3.625 13.6758 3.86914 13.7734 4.10352C13.8711 4.33789 13.9492 4.57227 14.0078 4.80664C14.0469 4.96289 14.0859 5.12891 14.125 5.30469C14.1641 5.46094 14.2129 5.61719 14.2715 5.77344C14.3691 5.92969 14.418 6.03711 14.418 6.0957C14.418 6.1543 14.4277 6.21289 14.4473 6.27148C14.5449 6.64258 14.6523 7.02344 14.7695 7.41406C14.8867 7.78516 14.9551 8.16602 14.9746 8.55664C14.9941 8.63477 15.0234 8.69336 15.0625 8.73242C15.1211 8.77148 15.1699 8.82031 15.209 8.87891C15.2285 8.9375 15.2285 8.99609 15.209 9.05469C15.1895 9.11328 15.1895 9.17188 15.209 9.23047C15.3066 9.40625 15.3457 9.52344 15.3262 9.58203C15.3262 9.62109 15.3359 9.66016 15.3555 9.69922C15.4727 9.81641 15.541 9.96289 15.5605 10.1387C15.5801 10.2949 15.6094 10.4219 15.6484 10.5195C15.668 10.5781 15.7168 10.7051 15.7949 10.9004C15.873 11.0957 15.9121 11.2129 15.9121 11.252C15.873 11.3887 15.8828 11.4766 15.9414 11.5156C16.0195 11.5547 16.0098 11.623 15.9121 11.7207C15.9121 11.8574 15.9414 12.0332 16 12.248C16.0781 12.4434 16.1367 12.5996 16.1758 12.7168C16.1758 12.8926 16.1758 13.0293 16.1758 13.127C16.1758 13.2051 16.1855 13.2637 16.2051 13.3027C16.2441 13.3418 16.293 13.3809 16.3516 13.4199C16.4102 13.459 16.498 13.5176 16.6152 13.5957C16.5371 13.6152 16.5176 13.6738 16.5566 13.7715C16.6152 13.8496 16.6348 13.918 16.6152 13.9766C16.6152 14.0352 16.5859 14.084 16.5273 14.123C16.4883 14.1621 16.4688 14.2207 16.4688 14.2988C16.4492 14.4355 16.4688 14.5918 16.5273 14.7676C16.5859 14.9434 16.6348 15.0898 16.6738 15.207C16.7324 15.4023 16.7617 15.5879 16.7617 15.7637C16.7812 15.9395 16.8105 16.125 16.8496 16.3203C16.9473 16.6133 16.9863 16.8184 16.9668 16.9355C16.9473 17.0527 16.957 17.1699 16.9961 17.2871C17.0938 17.541 17.1523 17.7363 17.1719 17.873C17.2109 17.9902 17.25 18.127 17.2891 18.2832C17.3281 18.4199 17.3672 18.5469 17.4062 18.6641C17.4648 18.7812 17.5137 18.8496 17.5527 18.8691C17.4941 18.9668 17.4941 19.0449 17.5527 19.1035C17.6113 19.1426 17.6113 19.1914 17.5527 19.25C17.5918 19.3477 17.6504 19.4258 17.7285 19.4844C17.8066 19.5234 17.875 19.5723 17.9336 19.6309C17.9336 19.8066 17.9336 19.9922 17.9336 20.1875C17.9531 20.3828 17.9922 20.5684 18.0508 20.7441C18.2461 21.1348 18.3535 21.457 18.373 21.7109C18.4121 21.9648 18.5 22.1992 18.6367 22.4141C18.7539 22.5312 18.793 22.6289 18.7539 22.707C18.7344 22.7852 18.7539 22.8535 18.8125 22.9121C18.9492 22.8535 19.0859 22.834 19.2227 22.8535C19.3789 22.873 19.5352 22.873 19.6914 22.8535C19.9062 22.834 20.1016 22.7949 20.2773 22.7363C20.4531 22.6582 20.6387 22.6094 20.834 22.5898C20.9121 22.5703 21.0195 22.5703 21.1562 22.5898C21.293 22.6094 21.4004 22.6289 21.4785 22.6484C21.5762 22.668 21.6445 22.707 21.6836 22.7656C21.7422 22.8047 21.8203 22.834 21.918 22.8535C22.0938 22.8926 22.2695 22.9023 22.4453 22.8828C22.6211 22.8438 22.7871 22.8047 22.9434 22.7656C23.0605 22.9219 23.1289 23 23.1484 23C23.168 22.9805 23.1973 22.9902 23.2363 23.0293C23.2754 23.0684 23.2852 23.1465 23.2656 23.2637C23.2461 23.3809 23.2559 23.4785 23.2949 23.5566C23.1973 23.5957 23.1094 23.6348 23.0312 23.6738C22.9727 23.7129 22.9141 23.7715 22.8555 23.8496C22.6602 23.8496 22.4746 23.8496 22.2988 23.8496C22.123 23.8496 21.9375 23.8301 21.7422 23.791C21.5664 23.752 21.4199 23.7031 21.3027 23.6445C21.2051 23.6055 21.0488 23.5957 20.834 23.6152C20.6582 23.6348 20.4824 23.6641 20.3066 23.7031C20.1309 23.7422 19.9551 23.7715 19.7793 23.791C19.7402 23.791 19.6426 23.791 19.4863 23.791C19.3496 23.791 19.1934 23.791 19.0176 23.791C18.8613 23.791 18.7051 23.791 18.5488 23.791C18.4121 23.791 18.334 23.791 18.3145 23.791C18.0801 23.791 17.9141 23.7715 17.8164 23.7324C17.7383 23.6934 17.6504 23.6738 17.5527 23.6738C17.377 23.7129 17.2695 23.7227 17.2305 23.7031C17.1914 23.6836 17.1523 23.6738 17.1133 23.6738C16.9766 23.6738 16.8398 23.6836 16.7031 23.7031C16.5664 23.7422 16.4297 23.7715 16.293 23.791H15.209C15.1895 23.6934 15.1309 23.6348 15.0332 23.6152C14.9551 23.6152 14.9062 23.5664 14.8867 23.4688C14.8477 23.3711 14.8477 23.2734 14.8867 23.1758C14.9453 23.0977 14.9941 23.0098 15.0332 22.9121C15.4629 22.873 15.8828 22.8535 16.293 22.8535C16.7031 22.8535 17.123 22.834 17.5527 22.7949C17.5723 22.7168 17.5527 22.6484 17.4941 22.5898C17.4551 22.5312 17.4355 22.4531 17.4355 22.3555C17.4551 22.2383 17.4355 22.1016 17.377 21.9453C17.2793 21.6523 17.1914 21.3594 17.1133 21.0664C17.0547 20.7539 16.9668 20.4609 16.8496 20.1875C16.7129 19.7969 16.6152 19.4844 16.5566 19.25C16.498 18.9961 16.4297 18.7422 16.3516 18.4883C16.3125 18.3906 16.2637 18.293 16.2051 18.1953C16.166 18.0781 16.1465 17.9609 16.1465 17.8438C16.166 17.6484 16.1465 17.5215 16.0879 17.4629C16.0488 17.3262 16.0488 17.2383 16.0879 17.1992C16.1465 17.1406 16.1074 17.0234 15.9707 16.8477C15.9316 16.6914 15.9121 16.5352 15.9121 16.3789C15.9121 16.2031 15.8926 16.0371 15.8535 15.8809C15.834 15.8027 15.8047 15.7344 15.7656 15.6758C15.7461 15.6172 15.7266 15.5586 15.707 15.5C15.668 15.3242 15.6387 15.1484 15.6191 14.9727C15.6191 14.7969 15.5898 14.6211 15.5312 14.4453C15.4922 14.4648 15.3945 14.4746 15.2383 14.4746C15.1016 14.4746 14.9355 14.4844 14.7402 14.5039C14.5254 14.5234 14.2812 14.543 14.0078 14.5625C13.8125 14.4844 13.6855 14.4551 13.627 14.4746C13.5879 14.4941 13.5488 14.5039 13.5098 14.5039C13.334 14.5039 13.168 14.4844 13.0117 14.4453C12.8555 14.4062 12.6797 14.4062 12.4844 14.4453C12.4062 14.4062 12.2988 14.3867 12.1621 14.3867C12.0254 14.3867 11.8789 14.3965 11.7227 14.416C11.5859 14.4355 11.4492 14.4746 11.3125 14.5332C11.1758 14.5723 11.0684 14.6211 10.9902 14.6797C10.6973 14.6797 10.3945 14.7188 10.082 14.7969C9.78906 14.8555 9.49609 14.8652 9.20312 14.8262C9.18359 14.9629 9.16406 15.168 9.14453 15.4414C9.14453 15.6953 9.13477 15.9688 9.11523 16.2617C9.0957 16.5547 9.06641 16.8281 9.02734 17.082C8.98828 17.3359 8.93945 17.502 8.88086 17.5801C8.97852 17.7363 8.97852 17.8828 8.88086 18.0195C8.80273 18.1367 8.74414 18.2637 8.70508 18.4004L8.61719 18.7227C8.59766 18.7812 8.58789 18.8398 8.58789 18.8984C8.60742 18.957 8.61719 19.0254 8.61719 19.1035C8.59766 19.1621 8.56836 19.2207 8.5293 19.2793C8.50977 19.3379 8.5 19.4062 8.5 19.4844C8.46094 19.6211 8.44141 19.7578 8.44141 19.8945C8.46094 20.0117 8.46094 20.1484 8.44141 20.3047C8.42188 20.4023 8.38281 20.4902 8.32422 20.5684C8.28516 20.627 8.24609 20.6953 8.20703 20.7734C8.22656 20.8711 8.22656 20.9883 8.20703 21.125C8.1875 21.2617 8.20703 21.3496 8.26562 21.3887C8.1875 21.4277 8.14844 21.5059 8.14844 21.623C8.16797 21.7207 8.1582 21.8086 8.11914 21.8867C8.2168 22.043 8.38281 22.1211 8.61719 22.1211C8.85156 22.1211 9.04688 22.0918 9.20312 22.0332C9.37891 22.1309 9.50586 22.2188 9.58398 22.2969C9.66211 22.375 9.7207 22.4336 9.75977 22.4727C9.7207 22.5508 9.70117 22.6289 9.70117 22.707C9.70117 22.7852 9.68164 22.8535 9.64258 22.9121C9.60352 22.9707 9.55469 23.0098 9.49609 23.0293C9.45703 23.0684 9.42773 23.1172 9.4082 23.1758C9.29102 23.1367 9.16406 23.1172 9.02734 23.1172C8.89062 23.1367 8.75391 23.127 8.61719 23.0879C8.51953 23.0684 8.44141 23.0391 8.38281 23C8.32422 22.9609 8.25586 22.9316 8.17773 22.9121C8.00195 22.873 7.81641 22.8633 7.62109 22.8828C7.44531 22.8828 7.2793 22.8242 7.12305 22.707C6.94727 22.7266 6.63477 22.7363 6.18555 22.7363C5.75586 22.7168 5.29688 22.707 4.80859 22.707C4.33984 22.707 3.90039 22.7168 3.49023 22.7363C3.09961 22.7559 2.85547 22.8145 2.75781 22.9121C2.66016 22.8926 2.5625 22.873 2.46484 22.8535C2.38672 22.834 2.30859 22.8047 2.23047 22.7656C2.07422 22.7656 1.87891 22.7852 1.64453 22.8242C1.41016 22.8633 1.18555 22.8828 0.970703 22.8828C0.755859 22.8828 0.580078 22.834 0.443359 22.7363C0.287109 22.6387 0.228516 22.4434 0.267578 22.1504C0.365234 22.0332 0.511719 21.9648 0.707031 21.9453C0.902344 21.9062 1.07812 21.8867 1.23438 21.8867C1.56641 21.9062 1.79102 21.9062 1.9082 21.8867C2.04492 21.8477 2.18164 21.8477 2.31836 21.8867C2.37695 21.8281 2.45508 21.6914 2.55273 21.4766C2.65039 21.2422 2.73828 20.9883 2.81641 20.7148C2.91406 20.4219 3.00195 20.1484 3.08008 19.8945C3.1582 19.6406 3.2168 19.4648 3.25586 19.3672C3.37305 18.9961 3.51953 18.6152 3.69531 18.2246C3.73438 18.1465 3.77344 18.0781 3.8125 18.0195C3.85156 17.9414 3.88086 17.8633 3.90039 17.7852C3.93945 17.6875 3.95898 17.5996 3.95898 17.5215C3.95898 17.4238 3.97852 17.3262 4.01758 17.2285C4.05664 17.0723 4.11523 16.8867 4.19336 16.6719C4.27148 16.4375 4.35938 16.2422 4.45703 16.0859C4.57422 15.9492 4.63281 15.8223 4.63281 15.7051C4.65234 15.5879 4.68164 15.4805 4.7207 15.3828C4.7793 15.2266 4.84766 15.0801 4.92578 14.9434C5.02344 14.7871 5.0625 14.6211 5.04297 14.4453C5.25781 14.2109 5.39453 13.9473 5.45312 13.6543C5.51172 13.3613 5.58008 13.0684 5.6582 12.7754C5.67773 12.6777 5.69727 12.5996 5.7168 12.541C5.75586 12.4824 5.79492 12.4141 5.83398 12.3359C5.85352 12.2383 5.86328 12.1504 5.86328 12.0723C5.86328 11.9941 5.88281 11.916 5.92188 11.8379C5.96094 11.6816 6.00977 11.5449 6.06836 11.4277C6.14648 11.3105 6.20508 11.1738 6.24414 11.0176C6.2832 10.9395 6.30273 10.8613 6.30273 10.7832C6.30273 10.7051 6.32227 10.6172 6.36133 10.5195C6.51758 10.3242 6.61523 10.1191 6.6543 9.9043C6.71289 9.66992 6.80078 9.47461 6.91797 9.31836C6.95703 9.14258 6.9668 8.98633 6.94727 8.84961C6.94727 8.71289 7.00586 8.56641 7.12305 8.41016C7.16211 8.3125 7.17188 8.22461 7.15234 8.14648C7.15234 8.06836 7.16211 7.99023 7.18164 7.91211C7.20117 7.83398 7.2207 7.76562 7.24023 7.70703C7.25977 7.62891 7.2793 7.55078 7.29883 7.47266C7.33789 7.31641 7.36719 7.16016 7.38672 7.00391C7.42578 6.84766 7.46484 6.69141 7.50391 6.53516C7.54297 6.45703 7.57227 6.38867 7.5918 6.33008C7.63086 6.27148 7.66016 6.19336 7.67969 6.0957C7.69922 6.05664 7.69922 6.00781 7.67969 5.94922C7.66016 5.89062 7.66016 5.83203 7.67969 5.77344C7.75781 5.63672 7.78711 5.54883 7.76758 5.50977C7.76758 5.4707 7.77734 5.43164 7.79688 5.39258C7.81641 5.31445 7.8457 5.24609 7.88477 5.1875C7.92383 5.12891 7.94336 5.05078 7.94336 4.95312C8.02148 4.67969 8.05078 4.47461 8.03125 4.33789C8.01172 4.20117 8.02148 4.08398 8.06055 3.98633C8.1582 3.79102 8.20703 3.6543 8.20703 3.57617C8.20703 3.49805 8.20703 3.41016 8.20703 3.3125C8.30469 3.27344 8.36328 3.20508 8.38281 3.10742C8.42188 3.00977 8.48047 2.94141 8.55859 2.90234C8.59766 2.62891 8.66602 2.38477 8.76367 2.16992C8.62695 2.13086 8.39258 2.14062 8.06055 2.19922C7.72852 2.25781 7.38672 2.30664 7.03516 2.3457C6.70312 2.36523 6.41016 2.3457 6.15625 2.28711C5.92188 2.20898 5.81445 2.01367 5.83398 1.70117C5.89258 1.56445 6 1.4668 6.15625 1.4082C6.27344 1.36914 6.39062 1.36914 6.50781 1.4082C6.64453 1.44727 6.78125 1.4668 6.91797 1.4668C6.97656 1.4668 7.02539 1.45703 7.06445 1.4375C7.12305 1.41797 7.18164 1.4082 7.24023 1.4082C7.29883 1.4082 7.34766 1.41797 7.38672 1.4375C7.44531 1.45703 7.50391 1.4668 7.5625 1.4668C7.62109 1.4668 7.66992 1.45703 7.70898 1.4375C7.76758 1.39844 7.82617 1.36914 7.88477 1.34961C8.08008 1.31055 8.27539 1.30078 8.4707 1.32031C8.66602 1.32031 8.85156 1.30078 9.02734 1.26172C9.125 1.22266 9.20312 1.19336 9.26172 1.17383C9.33984 1.13477 9.42773 1.10547 9.52539 1.08594C9.60352 1.08594 9.65234 1.10547 9.67188 1.14453C9.71094 1.16406 9.76953 1.18359 9.84766 1.20312C9.94531 1.22266 10.0332 1.22266 10.1113 1.20312C10.209 1.16406 10.3066 1.14453 10.4043 1.14453C10.6191 1.18359 10.7461 1.19336 10.7852 1.17383C10.8242 1.1543 10.8633 1.14453 10.9023 1.14453C10.9609 1.14453 11.0195 1.16406 11.0781 1.20312C11.1367 1.24219 11.2051 1.26172 11.2832 1.26172C11.3809 1.26172 11.4785 1.24219 11.5762 1.20312C11.6738 1.16406 11.7715 1.14453 11.8691 1.14453C12.0645 1.16406 12.1719 1.16406 12.1914 1.14453C12.2305 1.10547 12.2695 1.08594 12.3086 1.08594C12.5039 1.06641 12.6895 1.07617 12.8652 1.11523C13.041 1.1543 13.2168 1.14453 13.3926 1.08594C13.627 0.988281 13.793 0.958984 13.8906 0.998047C13.9883 1.01758 14.0762 1.02734 14.1543 1.02734C14.252 1.02734 14.3398 1.01758 14.418 0.998047C14.4961 0.978516 14.5742 0.96875 14.6523 0.96875C14.7305 0.988281 14.7988 1.00781 14.8574 1.02734C14.916 1.04688 14.9746 1.06641 15.0332 1.08594C15.0527 1.04688 15.1016 1.03711 15.1797 1.05664C15.2773 1.07617 15.3555 1.08594 15.4141 1.08594C15.4922 1.14453 15.5605 1.20312 15.6191 1.26172C15.6777 1.32031 15.7559 1.32031 15.8535 1.26172ZM9.90625 2.11133C9.82812 2.22852 9.75977 2.35547 9.70117 2.49219C9.66211 2.60938 9.68164 2.74609 9.75977 2.90234C9.66211 2.92188 9.60352 2.9707 9.58398 3.04883C9.58398 3.12695 9.56445 3.20508 9.52539 3.2832C9.42773 3.38086 9.36914 3.46875 9.34961 3.54688C9.34961 3.60547 9.33984 3.6543 9.32031 3.69336C9.26172 3.84961 9.20312 3.98633 9.14453 4.10352C9.10547 4.2207 9.10547 4.35742 9.14453 4.51367C9.06641 4.57227 9.01758 4.65039 8.99805 4.74805C8.97852 4.82617 8.95898 4.91406 8.93945 5.01172C8.90039 5.20703 8.86133 5.40234 8.82227 5.59766C8.7832 5.79297 8.72461 5.97852 8.64648 6.1543C8.62695 6.23242 8.58789 6.33008 8.5293 6.44727C8.4707 6.54492 8.44141 6.63281 8.44141 6.71094C8.48047 6.86719 8.48047 7.01367 8.44141 7.15039C8.42188 7.28711 8.40234 7.375 8.38281 7.41406C8.30469 7.53125 8.26562 7.60938 8.26562 7.64844C8.28516 7.66797 8.28516 7.69727 8.26562 7.73633C8.24609 7.79492 8.2168 7.84375 8.17773 7.88281C8.1582 7.92188 8.13867 7.9707 8.11914 8.0293C8.19727 8.2832 8.16797 8.50781 8.03125 8.70312C7.91406 8.89844 7.8457 9.08398 7.82617 9.25977C7.82617 9.41602 7.79688 9.57227 7.73828 9.72852C7.69922 9.86523 7.65039 10.002 7.5918 10.1387C7.5332 10.2754 7.48438 10.4219 7.44531 10.5781C7.40625 10.7148 7.39648 10.8613 7.41602 11.0176C7.25977 11.1738 7.17188 11.3496 7.15234 11.5449C7.15234 11.7402 7.10352 11.9062 7.00586 12.043C6.92773 12.1602 6.86914 12.2871 6.83008 12.4238C6.79102 12.541 6.75195 12.668 6.71289 12.8047C6.69336 12.9414 6.67383 13.0684 6.6543 13.1855C6.6543 13.3027 6.66406 13.3809 6.68359 13.4199C6.58594 13.4785 6.50781 13.5762 6.44922 13.7129C6.41016 13.8496 6.41992 13.9668 6.47852 14.0645C6.43945 14.1035 6.39062 14.1328 6.33203 14.1523C6.27344 14.1719 6.24414 14.2207 6.24414 14.2988C6.18555 14.5137 6.11719 14.7285 6.03906 14.9434C5.96094 15.1582 5.89258 15.3828 5.83398 15.6172C5.69727 15.832 5.59961 16.0176 5.54102 16.1738C5.48242 16.3301 5.44336 16.4863 5.42383 16.6426C5.30664 16.7012 5.23828 16.7891 5.21875 16.9062C5.19922 17.0234 5.14062 17.1309 5.04297 17.2285C4.90625 17.4824 4.82812 17.707 4.80859 17.9023C4.80859 18.0781 4.7793 18.2051 4.7207 18.2832C4.60352 18.498 4.54492 18.625 4.54492 18.6641C4.54492 18.7031 4.53516 18.7422 4.51562 18.7812C4.32031 19.2109 4.14453 19.6406 3.98828 20.0703C3.85156 20.5 3.69531 20.9395 3.51953 21.3887C3.53906 21.4863 3.50977 21.5645 3.43164 21.623C3.37305 21.6816 3.37305 21.75 3.43164 21.8281C3.62695 21.8672 3.8125 21.877 3.98828 21.8574C4.18359 21.8379 4.37891 21.8281 4.57422 21.8281C4.61328 21.8281 4.66211 21.8379 4.7207 21.8574C4.79883 21.877 4.85742 21.8867 4.89648 21.8867C5.26758 21.8477 5.54102 21.8086 5.7168 21.7695C5.91211 21.7109 6.10742 21.6719 6.30273 21.6523C6.41992 21.6523 6.53711 21.6719 6.6543 21.7109C6.77148 21.75 6.87891 21.7305 6.97656 21.6523C7.05469 21.4375 7.06445 21.2422 7.00586 21.0664C7.04492 20.9688 7.09375 20.8809 7.15234 20.8027C7.21094 20.7051 7.25977 20.6074 7.29883 20.5098C7.31836 20.4512 7.31836 20.3926 7.29883 20.334C7.2793 20.2559 7.2793 20.1875 7.29883 20.1289C7.37695 19.8945 7.40625 19.7578 7.38672 19.7188C7.36719 19.6797 7.35742 19.6309 7.35742 19.5723C7.39648 19.4746 7.42578 19.3965 7.44531 19.3379C7.46484 19.2793 7.45508 19.2207 7.41602 19.1621C7.45508 19.123 7.51367 18.9961 7.5918 18.7812C7.66992 18.5469 7.71875 18.4004 7.73828 18.3418C7.69922 18.2246 7.68945 18.127 7.70898 18.0488C7.74805 17.9512 7.77734 17.8828 7.79688 17.8438C7.81641 17.7461 7.82617 17.6484 7.82617 17.5508C7.82617 17.4336 7.8457 17.3262 7.88477 17.2285C7.92383 17.1699 7.95312 17.1113 7.97266 17.0527C8.01172 16.9941 8.04102 16.9258 8.06055 16.8477C8.08008 16.7695 8.08008 16.6914 8.06055 16.6133C8.06055 16.5352 8.06055 16.457 8.06055 16.3789C8.06055 16.2227 8.07031 16.0762 8.08984 15.9395C8.12891 15.8027 8.1582 15.6562 8.17773 15.5C8.17773 15.3828 8.16797 15.2754 8.14844 15.1777C8.12891 15.0605 8.13867 14.9434 8.17773 14.8262C8.19727 14.748 8.20703 14.6211 8.20703 14.4453C8.1875 14.2695 8.1875 14.1719 8.20703 14.1523C8.24609 14.1133 8.26562 14.0742 8.26562 14.0352L8.32422 13.6836C8.34375 13.6445 8.36328 13.5273 8.38281 13.332C8.40234 13.1172 8.42188 12.9609 8.44141 12.8633C8.46094 12.8242 8.48047 12.7754 8.5 12.7168C8.51953 12.6582 8.53906 12.5996 8.55859 12.541C8.59766 12.2871 8.63672 12.0332 8.67578 11.7793C8.73438 11.5254 8.7832 11.2715 8.82227 11.0176C8.8418 10.9199 8.8418 10.8223 8.82227 10.7246C8.82227 10.627 8.8418 10.5293 8.88086 10.4316C8.95898 10.2754 8.98828 10.1777 8.96875 10.1387C8.96875 10.0801 8.97852 10.0312 8.99805 9.99219C8.99805 9.91406 9.01758 9.8457 9.05664 9.78711C9.0957 9.70898 9.08594 9.63086 9.02734 9.55273C9.14453 9.49414 9.20312 9.40625 9.20312 9.28906C9.20312 9.15234 9.22266 9.03516 9.26172 8.9375C9.35938 8.80078 9.38867 8.72266 9.34961 8.70312C9.33008 8.68359 9.33984 8.61523 9.37891 8.49805C9.41797 8.36133 9.44727 8.27344 9.4668 8.23438C9.50586 8.17578 9.50586 8.0293 9.4668 7.79492C9.68164 7.38477 9.79883 6.95508 9.81836 6.50586C9.83789 6.05664 9.90625 5.61719 10.0234 5.1875C10.0625 5.08984 10.1016 5.00195 10.1406 4.92383C10.1797 4.82617 10.209 4.72852 10.2285 4.63086C10.209 4.55273 10.209 4.49414 10.2285 4.45508C10.2676 4.39648 10.2871 4.34766 10.2871 4.30859C10.3262 4.09375 10.3457 3.87891 10.3457 3.66406C10.3457 3.42969 10.3652 3.20508 10.4043 2.99023C10.4238 2.85352 10.4531 2.72656 10.4922 2.60938C10.5508 2.49219 10.5605 2.36523 10.5215 2.22852C10.4238 2.22852 10.3164 2.21875 10.1992 2.19922C10.1016 2.17969 10.0039 2.15039 9.90625 2.11133ZM14.8281 10.9004C14.7305 10.7832 14.6816 10.6953 14.6816 10.6367C14.6816 10.5781 14.6719 10.5195 14.6523 10.4609C14.5547 10.1094 14.4375 9.75781 14.3008 9.40625C14.1641 9.05469 14.0469 8.70312 13.9492 8.35156C13.9297 8.29297 13.9199 8.23438 13.9199 8.17578C13.9199 8.11719 13.9102 8.06836 13.8906 8.0293C13.8516 7.83398 13.7832 7.64844 13.6855 7.47266C13.6074 7.29688 13.5488 7.11133 13.5098 6.91602C13.4902 6.81836 13.4805 6.71094 13.4805 6.59375C13.5 6.47656 13.4902 6.36914 13.4512 6.27148C13.4316 6.21289 13.4023 6.16406 13.3633 6.125C13.3438 6.06641 13.3242 6.00781 13.3047 5.94922C13.2266 5.73438 13.1777 5.5293 13.1582 5.33398C13.1387 5.11914 13.0898 4.9043 13.0117 4.68945C12.9922 4.61133 12.9629 4.55273 12.9238 4.51367C12.8848 4.45508 12.8457 4.38672 12.8066 4.30859C12.748 4.09375 12.709 3.9668 12.6895 3.92773C12.6699 3.88867 12.6504 3.84961 12.6309 3.81055C12.5723 3.6543 12.5234 3.49805 12.4844 3.3418C12.4648 3.16602 12.4258 3 12.3672 2.84375C12.3281 2.78516 12.2793 2.74609 12.2207 2.72656C12.1816 2.6875 12.1621 2.62891 12.1621 2.55078C12.084 2.51172 12.0449 2.45312 12.0449 2.375C12.0449 2.27734 11.9863 2.24805 11.8691 2.28711C11.7715 2.28711 11.6641 2.38477 11.5469 2.58008C11.4492 2.77539 11.3906 2.89258 11.3711 2.93164C11.332 3.08789 11.3125 3.25391 11.3125 3.42969C11.3125 3.60547 11.3027 3.77148 11.2832 3.92773C11.2441 4.2207 11.1758 4.50391 11.0781 4.77734C11 5.05078 10.9414 5.33398 10.9023 5.62695C10.8633 5.7832 10.8438 5.94922 10.8438 6.125C10.8438 6.30078 10.8242 6.47656 10.7852 6.65234C10.7461 6.76953 10.707 6.88672 10.668 7.00391C10.6289 7.10156 10.5996 7.19922 10.5801 7.29688C10.541 7.39453 10.5215 7.50195 10.5215 7.61914C10.541 7.7168 10.541 7.81445 10.5215 7.91211C10.502 8.00977 10.4727 8.15625 10.4336 8.35156C10.3945 8.52734 10.3457 8.71289 10.2871 8.9082C10.2285 9.10352 10.1699 9.28906 10.1113 9.46484C10.0723 9.62109 10.0234 9.73828 9.96484 9.81641C9.94531 9.91406 9.94531 9.98242 9.96484 10.0215C9.98438 10.0605 10.0039 10.1191 10.0234 10.1973C9.86719 10.373 9.79883 10.5684 9.81836 10.7832C9.85742 10.998 9.83789 11.2031 9.75977 11.3984C9.66211 11.6328 9.60352 11.7695 9.58398 11.8086C9.56445 11.8477 9.54492 11.8965 9.52539 11.9551C9.48633 12.1113 9.47656 12.2676 9.49609 12.4238C9.51562 12.5605 9.50586 12.707 9.4668 12.8633C9.44727 13.0195 9.4082 13.1758 9.34961 13.332C9.31055 13.4883 9.32031 13.6445 9.37891 13.8008C9.45703 13.8984 9.54492 13.9277 9.64258 13.8887C9.75977 13.8496 9.86719 13.8203 9.96484 13.8008C10.043 13.7812 10.1895 13.7617 10.4043 13.7422C10.6191 13.7031 10.7461 13.6641 10.7852 13.625C10.8438 13.5859 10.9414 13.5273 11.0781 13.4492C11.2344 13.3516 11.332 13.2832 11.3711 13.2441C11.6445 13.3418 11.9277 13.3906 12.2207 13.3906C12.5137 13.3711 12.7969 13.3613 13.0703 13.3613C13.1289 13.3613 13.1875 13.3711 13.2461 13.3906C13.3047 13.4102 13.3535 13.4199 13.3926 13.4199C13.4512 13.4199 13.5098 13.4102 13.5684 13.3906C13.627 13.3711 13.6855 13.3613 13.7441 13.3613C13.8223 13.3809 13.8906 13.4102 13.9492 13.4492C14.0078 13.4688 14.0762 13.4785 14.1543 13.4785C14.3496 13.4785 14.5352 13.459 14.7109 13.4199C14.8867 13.3809 15.0723 13.3613 15.2676 13.3613C15.2871 13.1855 15.2578 13.0195 15.1797 12.8633C15.1211 12.6875 15.0723 12.5117 15.0332 12.3359C14.9941 12.1602 14.9746 11.9844 14.9746 11.8086C14.9941 11.6328 14.9844 11.457 14.9453 11.2812C14.9062 11.1836 14.877 11.1348 14.8574 11.1348C14.8574 11.1348 14.8477 11.0566 14.8281 10.9004Z" fill="black"/>
<path d="M21.6543 23.9082C21.6348 23.8887 21.6055 23.8301 21.5664 23.7324C21.5469 23.6543 21.5176 23.5566 21.4785 23.4395C21.4395 23.3418 21.4004 23.2539 21.3613 23.1758C21.3223 23.0977 21.3027 23.0488 21.3027 23.0293C21.4199 22.8145 21.5273 22.6875 21.625 22.6484C21.7227 22.6094 21.8203 22.5703 21.918 22.5312C22.0352 22.7266 22.123 22.8242 22.1816 22.8242C22.2402 22.8242 22.2598 22.8535 22.2402 22.9121C22.3184 22.9512 22.3965 22.9609 22.4746 22.9414C22.5723 22.9219 22.6406 22.9316 22.6797 22.9707C22.7578 23.0098 22.8359 23.0293 22.9141 23.0293C22.9922 23.0293 23.0801 23.0293 23.1777 23.0293C23.334 22.7754 23.4219 22.6094 23.4414 22.5312C23.4023 22.2773 23.4023 22.0332 23.4414 21.7988C23.5 21.5645 23.5195 21.3203 23.5 21.0664C23.4609 20.8711 23.4512 20.7734 23.4707 20.7734C23.4902 20.7539 23.5 20.7246 23.5 20.6855C23.5 20.5488 23.4805 20.4219 23.4414 20.3047C23.4023 20.168 23.3828 20.041 23.3828 19.9238C23.3828 19.8262 23.4023 19.748 23.4414 19.6895C23.4805 19.6309 23.5 19.5625 23.5 19.4844C23.5 19.3281 23.4805 19.2109 23.4414 19.1328C23.4219 19.0352 23.4609 18.8984 23.5586 18.7227C23.5195 18.5664 23.5098 18.459 23.5293 18.4004C23.5684 18.3418 23.5977 18.2832 23.6172 18.2246C23.6172 18.166 23.6074 18.1172 23.5879 18.0781C23.5879 18.0195 23.5977 17.9609 23.6172 17.9023C23.6367 17.7852 23.666 17.6777 23.7051 17.5801C23.7441 17.4629 23.7637 17.3457 23.7637 17.2285C23.7637 17.1504 23.7441 17.082 23.7051 17.0234C23.6855 16.9648 23.6758 16.8965 23.6758 16.8184C23.6367 16.6816 23.627 16.5547 23.6465 16.4375C23.666 16.3008 23.6758 16.1641 23.6758 16.0273C23.6562 15.9688 23.6758 15.9199 23.7344 15.8809C23.793 15.8418 23.8223 15.7832 23.8223 15.7051L23.998 14.5625C24.0176 14.3672 24.0176 14.1719 23.998 13.9766C23.998 13.7812 24.0176 13.5762 24.0566 13.3613C24.0762 13.166 24.1055 12.9805 24.1445 12.8047C24.1836 12.6094 24.2031 12.4141 24.2031 12.2188C24.2227 12.0625 24.2129 11.916 24.1738 11.7793C24.1543 11.6426 24.1445 11.4961 24.1445 11.3398C24.1445 11.0859 24.1641 10.8418 24.2031 10.6074C24.2422 10.373 24.2617 10.1289 24.2617 9.875C24.2617 9.62109 24.252 9.36719 24.2324 9.11328C24.2129 8.85938 24.2227 8.60547 24.2617 8.35156C24.2812 8.33203 24.3008 8.24414 24.3203 8.08789C24.3594 7.93164 24.3789 7.83398 24.3789 7.79492C24.3789 7.6582 24.3691 7.53125 24.3496 7.41406C24.3301 7.27734 24.3203 7.13086 24.3203 6.97461C24.3594 6.75977 24.3691 6.63281 24.3496 6.59375C24.3301 6.55469 24.3203 6.51562 24.3203 6.47656C24.3008 6.28125 24.3008 6.08594 24.3203 5.89062C24.3398 5.69531 24.3398 5.5 24.3203 5.30469C24.2812 5.07031 24.2715 4.94336 24.291 4.92383C24.3301 4.88477 24.3594 4.8457 24.3789 4.80664C24.3984 4.55273 24.418 4.36719 24.4375 4.25C24.4766 4.11328 24.5059 3.9668 24.5254 3.81055C24.5645 3.53711 24.584 3.26367 24.584 2.99023C24.584 2.7168 24.584 2.44336 24.584 2.16992C24.3887 2.0332 24.1445 1.98438 23.8516 2.02344C23.5781 2.04297 23.3047 2.0918 23.0312 2.16992C22.7578 2.24805 22.5137 2.33594 22.2988 2.43359C22.084 2.51172 21.957 2.55078 21.918 2.55078C21.8398 2.55078 21.7715 2.53125 21.7129 2.49219C21.6543 2.45312 21.6348 2.38477 21.6543 2.28711C21.5176 2.20898 21.4395 2.14062 21.4199 2.08203C21.4004 2.02344 21.4004 1.96484 21.4199 1.90625C21.459 1.84766 21.498 1.79883 21.5371 1.75977C21.5957 1.70117 21.6152 1.64258 21.5957 1.58398C21.8691 1.54492 22.1328 1.47656 22.3867 1.37891C22.6602 1.28125 22.9434 1.22266 23.2363 1.20312C23.334 1.18359 23.4219 1.18359 23.5 1.20312C23.5781 1.20312 23.666 1.20312 23.7637 1.20312C23.959 1.18359 24.1445 1.16406 24.3203 1.14453C24.4961 1.10547 24.6816 1.06641 24.877 1.02734C25.0137 1.02734 25.1113 1.01758 25.1699 0.998047C25.2285 0.958984 25.2871 0.939453 25.3457 0.939453C25.5801 0.958984 25.707 0.96875 25.7266 0.96875C25.7656 0.949219 25.8047 0.939453 25.8438 0.939453C25.9609 0.919922 26.0781 0.929688 26.1953 0.96875C26.3125 0.988281 26.4297 0.988281 26.5469 0.96875C26.625 0.96875 26.7129 0.949219 26.8105 0.910156C26.9082 0.871094 26.9863 0.861328 27.0449 0.880859C27.1816 0.841797 27.3086 0.841797 27.4258 0.880859C27.543 0.919922 27.6699 0.939453 27.8066 0.939453C27.9629 0.939453 28.1094 0.919922 28.2461 0.880859C28.3828 0.841797 28.5293 0.822266 28.6855 0.822266C28.8418 0.822266 28.998 0.851562 29.1543 0.910156C29.3301 0.949219 29.4961 0.96875 29.6523 0.96875C29.75 0.96875 29.8281 0.958984 29.8867 0.939453C29.9453 0.919922 30.0137 0.919922 30.0918 0.939453C30.209 0.939453 30.3164 0.958984 30.4141 0.998047C30.5312 1.03711 30.6484 1.06641 30.7656 1.08594C30.8438 1.10547 30.9121 1.10547 30.9707 1.08594C31.0488 1.04688 31.127 1.02734 31.2051 1.02734C31.2441 1.02734 31.293 1.03711 31.3516 1.05664C31.4102 1.07617 31.4688 1.08594 31.5273 1.08594C31.6641 1.08594 31.8008 1.07617 31.9375 1.05664C32.0938 1.01758 32.2305 1.06641 32.3477 1.20312C32.6797 1.24219 32.9824 1.31055 33.2559 1.4082C33.5488 1.48633 33.8418 1.58398 34.1348 1.70117C34.252 1.74023 34.3398 1.79883 34.3984 1.87695C34.4766 1.93555 34.5938 1.94531 34.75 1.90625C34.8867 2.0625 35.0137 2.19922 35.1309 2.31641C35.2676 2.41406 35.4434 2.48242 35.6582 2.52148C35.7559 2.61914 35.834 2.72656 35.8926 2.84375C36.0879 2.96094 36.2148 3.0293 36.2734 3.04883C36.332 3.06836 36.3809 3.08789 36.4199 3.10742C36.4785 3.18555 36.5371 3.25391 36.5957 3.3125C36.6738 3.35156 36.7617 3.40039 36.8594 3.45898C36.957 3.53711 37.0645 3.61523 37.1816 3.69336C37.2402 3.77148 37.2793 3.84961 37.2988 3.92773C37.3379 4.00586 37.377 4.07422 37.416 4.13281C37.4551 4.21094 37.5137 4.25977 37.5918 4.2793C37.6699 4.2793 37.6992 4.34766 37.6797 4.48438C37.8945 4.71875 38.0312 4.9043 38.0898 5.04102C38.168 5.1582 38.2559 5.27539 38.3535 5.39258C38.4707 5.54883 38.5293 5.64648 38.5293 5.68555C38.5293 5.70508 38.5391 5.73438 38.5586 5.77344C38.6562 5.85156 38.6953 5.92969 38.6758 6.00781C38.6758 6.06641 38.7246 6.08594 38.8223 6.06641C38.7832 6.16406 38.793 6.23242 38.8516 6.27148C38.9102 6.31055 38.9199 6.39844 38.8809 6.53516C38.9785 6.65234 39.0664 6.7793 39.1445 6.91602C39.2422 7.05273 39.2617 7.19922 39.2031 7.35547C39.3203 7.51172 39.418 7.67773 39.4961 7.85352C39.5742 8.00977 39.6816 8.15625 39.8184 8.29297C39.8379 8.42969 39.8477 8.54688 39.8477 8.64453C39.8672 8.74219 39.9258 8.83984 40.0234 8.9375C40.043 9.15234 40.082 9.35742 40.1406 9.55273C40.2188 9.74805 40.2969 9.94336 40.375 10.1387C40.4141 10.2363 40.4238 10.3438 40.4043 10.4609C40.4043 10.5586 40.4043 10.6562 40.4043 10.7539C40.4238 10.8516 40.4531 10.9395 40.4922 11.0176C40.5312 11.0957 40.5605 11.1836 40.5801 11.2812C40.5996 11.3594 40.5996 11.4277 40.5801 11.4863C40.5605 11.5449 40.5605 11.6035 40.5801 11.6621C40.5996 11.7207 40.6191 11.7793 40.6387 11.8379C40.6582 11.8965 40.6777 11.9551 40.6973 12.0137C40.7363 12.2871 40.7266 12.5605 40.668 12.834C40.6094 13.0879 40.5605 13.3516 40.5215 13.625C40.502 13.8203 40.4824 14.0156 40.4629 14.2109C40.4629 14.4062 40.4434 14.6016 40.4043 14.7969C40.3848 14.875 40.3555 14.9531 40.3164 15.0312C40.2969 15.1094 40.2773 15.1875 40.2578 15.2656C40.1797 15.5977 40.1309 15.9199 40.1113 16.2324C40.1113 16.5449 40.0625 16.8672 39.9648 17.1992C39.9258 17.3555 39.8672 17.5117 39.7891 17.668C39.7305 17.8242 39.6816 17.9902 39.6426 18.166C39.6426 18.2051 39.584 18.3027 39.4668 18.459C39.3691 18.6152 39.3008 18.7031 39.2617 18.7227C39.2617 18.8008 39.2422 18.8594 39.2031 18.8984C39.1836 18.9375 39.1836 19.0059 39.2031 19.1035C39.1836 19.1035 39.1348 19.1426 39.0566 19.2207C38.9785 19.2793 38.8906 19.3477 38.793 19.4258C38.7148 19.4844 38.6367 19.5527 38.5586 19.6309C38.5 19.6895 38.4609 19.7285 38.4414 19.748C38.3828 19.9043 38.3047 20.0215 38.207 20.0996C38.1094 20.1582 38.041 20.207 38.002 20.2461C37.7871 20.4609 37.5723 20.6562 37.3574 20.832C37.1426 21.0078 36.9277 21.1934 36.7129 21.3887C36.6348 21.4473 36.5469 21.4961 36.4492 21.5352C36.3711 21.5742 36.293 21.6133 36.2148 21.6523C36.1758 21.6914 36.127 21.7305 36.0684 21.7695C36.0293 21.8086 35.9902 21.8477 35.9512 21.8867C35.7949 21.9258 35.7168 21.9551 35.7168 21.9746C35.7168 21.9941 35.6973 22.0137 35.6582 22.0332C35.6191 22.0723 35.5703 22.0918 35.5117 22.0918C35.4531 22.0918 35.3945 22.1113 35.3359 22.1504C35.0625 22.2871 34.877 22.3945 34.7793 22.4727C34.6816 22.5312 34.5742 22.5898 34.457 22.6484C34.418 22.668 34.3691 22.6875 34.3105 22.707C34.252 22.707 34.1934 22.7266 34.1348 22.7656C33.8418 22.9023 33.6367 22.9805 33.5195 23C33.4023 23.0391 33.2852 23.0879 33.168 23.1465C33.0703 23.1855 32.9727 23.2246 32.875 23.2637C32.7773 23.3223 32.6699 23.3711 32.5527 23.4102L32.2305 23.3516C32.0352 23.4492 31.9082 23.5078 31.8496 23.5273C31.8105 23.5469 31.7715 23.5566 31.7324 23.5566C31.5762 23.5957 31.4004 23.6152 31.2051 23.6152C31.0098 23.6152 30.8438 23.6738 30.707 23.791C30.3164 23.752 29.9258 23.7715 29.5352 23.8496C29.1641 23.9473 28.793 24.0156 28.4219 24.0547C28.2266 24.0938 28.1094 24.1035 28.0703 24.084C28.0508 24.0645 28.0215 24.0547 27.9824 24.0547C27.7871 24.0742 27.6016 24.1133 27.4258 24.1719C27.25 24.2305 27.0645 24.2695 26.8691 24.2891C26.7129 24.2891 26.5469 24.2695 26.3711 24.2305C26.1953 24.1914 26.0195 24.1719 25.8438 24.1719C25.7852 24.1719 25.7266 24.1816 25.668 24.2012C25.6289 24.2207 25.5801 24.2305 25.5215 24.2305C25.3262 24.1914 25.2188 24.1816 25.1992 24.2012C25.1992 24.2207 25.1797 24.2305 25.1406 24.2305C25.082 24.2305 25.0234 24.2109 24.9648 24.1719C24.9258 24.1328 24.877 24.1133 24.8184 24.1133C24.7012 24.1133 24.584 24.123 24.4668 24.1426C24.3691 24.1621 24.2617 24.1719 24.1445 24.1719C24.1055 24.1719 24.0566 24.1621 23.998 24.1426C23.9395 24.123 23.8809 24.1133 23.8223 24.1133C23.7637 24.1133 23.7051 24.123 23.6465 24.1426C23.6074 24.1621 23.5586 24.1719 23.5 24.1719C23.3438 24.0938 23.2461 24.0547 23.207 24.0547C23.1875 24.0742 23.1582 24.0742 23.1191 24.0547C22.9629 24.0352 22.8262 24.0059 22.709 23.9668C22.5918 23.9277 22.4551 23.9082 22.2988 23.9082C22.2012 23.8887 22.0938 23.8887 21.9766 23.9082C21.8594 23.9473 21.752 23.9473 21.6543 23.9082ZM31.9668 22.5898C32.1426 22.5508 32.2305 22.5312 32.2305 22.5312C32.2305 22.5117 32.25 22.4922 32.2891 22.4727C32.3477 22.4336 32.416 22.4141 32.4941 22.4141C32.5723 22.4141 32.6504 22.3945 32.7285 22.3555C33.002 22.2773 33.3047 22.1406 33.6367 21.9453C33.793 21.8477 33.8809 21.7988 33.9004 21.7988C33.9395 21.7988 33.9785 21.7891 34.0176 21.7695C34.252 21.6328 34.4375 21.5449 34.5742 21.5059C34.7109 21.4473 34.8379 21.3887 34.9551 21.3301C35.0137 21.291 35.0625 21.2617 35.1016 21.2422C35.1602 21.2031 35.2188 21.1641 35.2773 21.125C35.3359 21.0859 35.3945 21.0566 35.4531 21.0371C35.5312 21.0176 35.5996 20.9883 35.6582 20.9492C35.7168 20.9102 35.7656 20.8711 35.8047 20.832C35.8438 20.7734 35.8926 20.7246 35.9512 20.6855C35.9902 20.6465 36.0391 20.6074 36.0977 20.5684C36.1562 20.5293 36.2148 20.4902 36.2734 20.4512C36.3711 20.3535 36.459 20.2656 36.5371 20.1875C36.6348 20.0898 36.7617 20.0215 36.918 19.9824C36.9766 19.7871 37.0645 19.6699 37.1816 19.6309C37.3184 19.5723 37.4551 19.4844 37.5918 19.3672C37.5918 19.3672 37.6211 19.3281 37.6797 19.25C37.7383 19.1719 37.8066 19.0938 37.8848 19.0156C37.9629 18.9375 38.0312 18.8594 38.0898 18.7812C38.1484 18.7031 38.1777 18.6641 38.1777 18.6641C38.3535 18.4883 38.4316 18.3809 38.4121 18.3418C38.4121 18.3027 38.4219 18.2637 38.4414 18.2246C38.5977 18.0684 38.666 17.9512 38.6465 17.873C38.627 17.7949 38.6367 17.7266 38.6758 17.668C38.8906 17.4922 38.9883 17.2676 38.9688 16.9941C38.9688 16.7207 39.0176 16.4766 39.1152 16.2617C39.1934 16.1641 39.2129 16.0957 39.1738 16.0566C39.1543 16.0176 39.1543 15.9785 39.1738 15.9395C39.1934 15.5684 39.2617 15.1973 39.3789 14.8262C39.4961 14.4355 39.5547 14.0742 39.5547 13.7422C39.5547 13.6836 39.5352 13.6348 39.4961 13.5957C39.4766 13.5371 39.4766 13.4785 39.4961 13.4199C39.4961 13.4004 39.5059 13.3516 39.5254 13.2734C39.5449 13.1758 39.5645 13.0781 39.584 12.9805C39.623 12.8633 39.6523 12.7656 39.6719 12.6875C39.6914 12.5898 39.7012 12.541 39.7012 12.541C39.6035 12.502 39.5645 12.4434 39.584 12.3652C39.623 12.2871 39.6621 12.2188 39.7012 12.1602C39.6426 12.1211 39.6133 12.0723 39.6133 12.0137C39.6133 11.9355 39.6035 11.8574 39.584 11.7793C39.584 11.584 39.5742 11.4375 39.5547 11.3398C39.5156 11.2617 39.4766 11.1934 39.4375 11.1348C39.418 11.0762 39.3984 10.998 39.3789 10.9004C39.3594 10.8027 39.3398 10.6758 39.3203 10.5195C39.3203 10.3633 39.3008 10.2363 39.2617 10.1387C39.2227 10.041 39.2031 9.95312 39.2031 9.875C39.2227 9.77734 39.2129 9.68945 39.1738 9.61133C39.0957 9.43555 39.0371 9.30859 38.998 9.23047C38.959 9.13281 38.9199 9.04492 38.8809 8.9668C38.8418 8.86914 38.8125 8.79102 38.793 8.73242C38.7734 8.6543 38.7832 8.61523 38.8223 8.61523C38.7637 8.51758 38.6758 8.37109 38.5586 8.17578C38.4609 7.96094 38.3926 7.83398 38.3535 7.79492C38.3535 7.61914 38.2754 7.45312 38.1191 7.29688C38.1191 7.19922 38.0996 7.12109 38.0605 7.0625C38.0215 6.98438 37.9727 6.90625 37.9141 6.82812V6.47656C37.7969 6.37891 37.709 6.26172 37.6504 6.125C37.6113 5.96875 37.5137 5.85156 37.3574 5.77344C37.3379 5.65625 37.2793 5.56836 37.1816 5.50977C37.1035 5.45117 37.0742 5.34375 37.0938 5.1875C36.8984 4.97266 36.7324 4.82617 36.5957 4.74805C36.4785 4.65039 36.3711 4.57227 36.2734 4.51367C36.2539 4.47461 36.2148 4.41602 36.1562 4.33789C36.1172 4.24023 36.0781 4.17188 36.0391 4.13281C35.9023 4.09375 35.7852 4.03516 35.6875 3.95703C35.5898 3.87891 35.4824 3.79102 35.3652 3.69336C35.248 3.57617 35.1406 3.47852 35.043 3.40039C34.9453 3.30273 34.8965 3.24414 34.8965 3.22461C34.8574 3.22461 34.7695 3.19531 34.6328 3.13672C34.5156 3.05859 34.3789 2.98047 34.2227 2.90234C34.0859 2.82422 33.9492 2.75586 33.8125 2.69727C33.6953 2.61914 33.627 2.56055 33.6074 2.52148C33.5098 2.56055 33.4219 2.57031 33.3438 2.55078C33.2656 2.51172 33.1875 2.47266 33.1094 2.43359C33.0508 2.39453 32.9824 2.36523 32.9043 2.3457C32.8262 2.30664 32.748 2.30664 32.6699 2.3457C32.5332 2.20898 32.3672 2.15039 32.1719 2.16992C31.9766 2.16992 31.8008 2.15039 31.6445 2.11133C31.293 2.01367 31.0195 1.95508 30.8242 1.93555C30.6484 1.91602 30.4824 1.90625 30.3262 1.90625C30.2285 1.90625 30.1309 1.91602 30.0332 1.93555C29.9551 1.95508 29.8672 1.96484 29.7695 1.96484C29.6328 1.84766 29.5156 1.80859 29.418 1.84766C29.3203 1.86719 29.2227 1.88672 29.125 1.90625C29.0078 1.80859 28.832 1.7793 28.5977 1.81836C28.3633 1.85742 28.1777 1.88672 28.041 1.90625C27.9824 2.0625 27.9727 2.21875 28.0117 2.375C28.0508 2.53125 28.0703 2.6875 28.0703 2.84375C28.0703 2.90234 28.0605 2.96094 28.041 3.01953C28.0215 3.07812 28.0215 3.14648 28.041 3.22461V4.68945C28.0996 4.82617 28.1094 4.92383 28.0703 4.98242C28.0312 5.02148 28.0215 5.08984 28.041 5.1875C28.041 5.40234 28.0703 5.61719 28.1289 5.83203C28.207 6.04688 28.2461 6.26172 28.2461 6.47656C28.2266 6.78906 28.2168 7.0918 28.2168 7.38477C28.2168 7.67773 28.2461 7.98047 28.3047 8.29297C28.207 8.37109 28.168 8.43945 28.1875 8.49805C28.207 8.55664 28.2266 8.63477 28.2461 8.73242C28.2852 8.9668 28.3047 9.24023 28.3047 9.55273C28.3047 9.8457 28.2656 10.0996 28.1875 10.3145C28.2656 10.6074 28.3047 10.9102 28.3047 11.2227C28.3047 11.5352 28.2852 11.8477 28.2461 12.1602C28.207 12.4336 28.1973 12.7266 28.2168 13.0391C28.2559 13.3516 28.3047 13.6445 28.3633 13.918C28.2656 13.957 28.2266 14.0254 28.2461 14.123C28.2656 14.2012 28.2656 14.2793 28.2461 14.3574C28.2266 14.4355 28.1973 14.5137 28.1582 14.5918C28.1191 14.6699 28.0898 14.748 28.0703 14.8262C28.0508 14.9824 28.041 15.1387 28.041 15.2949C28.041 15.4316 28.0215 15.5684 27.9824 15.7051C28.1191 15.9199 28.1387 16.1543 28.041 16.4082C27.9629 16.6426 27.9043 16.8672 27.8652 17.082C27.8066 17.5508 27.8262 18.0391 27.9238 18.5469C27.8262 18.6445 27.7871 18.7422 27.8066 18.8398C27.8457 18.918 27.8652 19.0059 27.8652 19.1035C27.8066 19.3965 27.7773 19.6113 27.7773 19.748C27.7969 19.8848 27.8066 20.0312 27.8066 20.1875C27.8066 20.3047 27.7969 20.4609 27.7773 20.6562C27.7578 20.832 27.7383 21.0176 27.7188 21.2129C27.6992 21.3887 27.6992 21.5645 27.7188 21.7402C27.7383 21.916 27.7871 22.0527 27.8652 22.1504C27.7676 22.1895 27.7383 22.2578 27.7773 22.3555C27.8359 22.4336 27.8848 22.4922 27.9238 22.5312C27.9043 22.7266 27.9238 22.873 27.9824 22.9707C28.041 23.0488 28.0898 23.1172 28.1289 23.1758C28.3047 23.1562 28.4805 23.1465 28.6562 23.1465C28.832 23.1465 29.0078 23.127 29.1836 23.0879C29.2422 23.0684 29.3008 23.0391 29.3594 23C29.4375 22.9609 29.5059 22.9316 29.5645 22.9121C29.7598 22.9707 29.9746 22.9609 30.209 22.8828C30.4434 22.8047 30.6289 22.7656 30.7656 22.7656C30.9414 22.7852 31.0586 22.7754 31.1172 22.7363C31.1758 22.6973 31.2344 22.668 31.293 22.6484C31.5273 22.6289 31.6445 22.6094 31.6445 22.5898C31.6641 22.5508 31.6934 22.5312 31.7324 22.5312L31.9668 22.5898ZM25.7852 1.90625C25.7266 2.16016 25.6777 2.42383 25.6387 2.69727C25.5996 2.95117 25.5801 3.21484 25.5801 3.48828C25.6191 3.85938 25.6094 4.14258 25.5508 4.33789C25.4922 4.5332 25.502 4.71875 25.5801 4.89453C25.3848 5.03125 25.2969 5.20703 25.3164 5.42188C25.3359 5.63672 25.3652 5.83203 25.4043 6.00781C25.3848 6.35938 25.3652 6.61328 25.3457 6.76953C25.3262 6.92578 25.3262 7.0918 25.3457 7.26758C25.3652 7.36523 25.3848 7.45312 25.4043 7.53125C25.4434 7.60938 25.4629 7.69727 25.4629 7.79492C25.4629 7.95117 25.4434 8.11719 25.4043 8.29297C25.3652 8.46875 25.3262 8.63477 25.2871 8.79102C25.2676 8.92773 25.2578 9.06445 25.2578 9.20117C25.2578 9.31836 25.2578 9.45508 25.2578 9.61133C25.2578 9.68945 25.2676 9.76758 25.2871 9.8457C25.3066 9.9043 25.3066 9.97266 25.2871 10.0508C25.2871 10.1289 25.2676 10.1973 25.2285 10.2559C25.209 10.3145 25.1992 10.3828 25.1992 10.4609C25.1797 10.6367 25.1797 10.8027 25.1992 10.959C25.2383 11.0957 25.2188 11.2422 25.1406 11.3984C25.1992 11.5156 25.2578 11.6328 25.3164 11.75C25.375 11.8672 25.3652 11.9844 25.2871 12.1016C25.2871 12.1992 25.2969 12.2773 25.3164 12.3359C25.3359 12.3945 25.3262 12.4629 25.2871 12.541C25.2676 12.6582 25.248 12.7754 25.2285 12.8926C25.2285 12.9902 25.2188 13.0977 25.1992 13.2148C25.1797 13.2734 25.1504 13.332 25.1113 13.3906C25.0918 13.4492 25.082 13.5176 25.082 13.5957C25.082 13.6543 25.0918 13.7129 25.1113 13.7715C25.1309 13.8301 25.1406 13.8984 25.1406 13.9766C25.1406 14.0938 25.1309 14.2207 25.1113 14.3574C25.1113 14.4746 25.1016 14.6016 25.082 14.7383C25.0625 14.7969 25.043 14.8555 25.0234 14.9141C25.0039 14.9531 24.9844 15.002 24.9648 15.0605C24.9648 15.1191 24.9648 15.1777 24.9648 15.2363C24.9844 15.2754 24.9844 15.3242 24.9648 15.3828C24.9453 15.4609 24.916 15.5391 24.877 15.6172C24.8574 15.6758 24.8379 15.7441 24.8184 15.8223C24.7598 16.0957 24.7402 16.3691 24.7598 16.6426C24.7793 16.916 24.7793 17.1895 24.7598 17.4629C24.7598 17.541 24.7402 17.6191 24.7012 17.6973C24.6816 17.7559 24.7012 17.8242 24.7598 17.9023C24.6816 18.0586 24.623 18.1855 24.584 18.2832C24.6621 18.5176 24.6328 18.791 24.4961 19.1035C24.5156 19.2012 24.5352 19.2891 24.5547 19.3672C24.5742 19.4453 24.584 19.5332 24.584 19.6309C24.584 19.6895 24.5645 19.748 24.5254 19.8066C24.5059 19.8652 24.4961 19.9238 24.4961 19.9824C24.4766 20.041 24.4766 20.0996 24.4961 20.1582C24.5156 20.2168 24.5254 20.2852 24.5254 20.3633C24.5254 20.5781 24.5059 20.7832 24.4668 20.9785C24.4473 21.1738 24.4375 21.3789 24.4375 21.5938C24.4375 21.6914 24.457 21.8184 24.4961 21.9746C24.4961 22.1309 24.4766 22.2773 24.4375 22.4141C24.418 22.5508 24.4473 22.6777 24.5254 22.7949C24.5254 22.873 24.4961 22.9609 24.4375 23.0586C24.3789 23.1758 24.3789 23.2539 24.4375 23.293C24.6328 23.3516 24.7598 23.3613 24.8184 23.3223C24.8965 23.3027 24.9648 23.293 25.0234 23.293C25.082 23.293 25.1309 23.3027 25.1699 23.3223C25.2285 23.3418 25.2871 23.3516 25.3457 23.3516C25.4238 23.3516 25.4922 23.3418 25.5508 23.3223C25.6094 23.3027 25.668 23.293 25.7266 23.293C25.7852 23.293 25.8438 23.3027 25.9023 23.3223C25.9609 23.3418 26.0195 23.3516 26.0781 23.3516C26.1758 23.3516 26.2734 23.3223 26.3711 23.2637C26.4688 23.2051 26.5664 23.1953 26.6641 23.2344C26.6445 23.0781 26.6445 22.9219 26.6641 22.7656C26.7031 22.5898 26.7227 22.4238 26.7227 22.2676C26.7031 22.0527 26.6738 21.8477 26.6348 21.6523C26.6152 21.457 26.6055 21.2617 26.6055 21.0664C26.6445 20.7734 26.6543 20.5684 26.6348 20.4512C26.6152 20.334 26.6445 20.2266 26.7227 20.1289C26.6445 19.9531 26.6348 19.7969 26.6934 19.6602C26.7715 19.5234 26.7812 19.3574 26.7227 19.1621C26.8594 19.0059 26.9082 18.8594 26.8691 18.7227C26.8496 18.5859 26.8398 18.4395 26.8398 18.2832C26.8789 17.9902 26.8789 17.7949 26.8398 17.6973C26.8203 17.5996 26.8203 17.502 26.8398 17.4043C26.8398 17.248 26.8496 17.0918 26.8691 16.9355C26.9082 16.7793 26.9277 16.623 26.9277 16.4668C26.9473 16.3496 26.9473 16.2324 26.9277 16.1152C26.9277 15.998 26.9277 15.8809 26.9277 15.7637C26.9277 15.7051 26.918 15.6465 26.8984 15.5879C26.8984 15.5098 26.9082 15.4414 26.9277 15.3828C27.0254 15.168 27.0645 14.9629 27.0449 14.7676C27.0254 14.5527 27.0449 14.3379 27.1035 14.123C27.1816 13.9668 27.2207 13.8496 27.2207 13.7715C27.2402 13.6738 27.2598 13.5664 27.2793 13.4492C27.2988 13.332 27.3086 13.2344 27.3086 13.1562C27.3086 13.0586 27.3086 13 27.3086 12.9805C27.3086 12.9023 27.2891 12.834 27.25 12.7754C27.2305 12.6973 27.2207 12.6191 27.2207 12.541C27.2012 12.4629 27.2012 12.3848 27.2207 12.3066C27.2598 12.2285 27.2695 12.1406 27.25 12.043C27.2305 11.6523 27.2305 11.2617 27.25 10.8711C27.2695 10.4609 27.2695 10.0605 27.25 9.66992C27.25 9.57227 27.2402 9.48438 27.2207 9.40625C27.2207 9.32812 27.2207 9.25 27.2207 9.17188C27.2012 8.9375 27.1816 8.71289 27.1621 8.49805C27.1621 8.26367 27.1621 8.0293 27.1621 7.79492C27.1621 7.73633 27.1719 7.67773 27.1914 7.61914C27.2109 7.56055 27.2207 7.49219 27.2207 7.41406C27.2207 7.33594 27.2109 7.25781 27.1914 7.17969C27.1719 7.10156 27.1621 7.01367 27.1621 6.91602C27.1426 6.52539 27.1133 6.13477 27.0742 5.74414C27.0547 5.35352 27.0449 4.96289 27.0449 4.57227C27.0449 4.41602 27.0254 4.24023 26.9863 4.04492C26.9668 3.83008 27.0059 3.64453 27.1035 3.48828C27.0059 3.29297 26.9668 3.09766 26.9863 2.90234C27.0059 2.6875 26.9375 2.48242 26.7812 2.28711C26.7227 2.22852 26.7129 2.15039 26.752 2.05273C26.8105 1.93555 26.7617 1.86719 26.6055 1.84766C26.4688 1.92578 26.332 1.95508 26.1953 1.93555C26.0781 1.91602 25.9414 1.90625 25.7852 1.90625Z" fill="black"/>
<path d="M42.25 23.9082C42.2305 23.8887 42.2012 23.8301 42.1621 23.7324C42.1426 23.6543 42.1133 23.5566 42.0742 23.4395C42.0352 23.3418 41.9961 23.2539 41.957 23.1758C41.918 23.0977 41.8984 23.0488 41.8984 23.0293C42.0156 22.8145 42.123 22.6875 42.2207 22.6484C42.3184 22.6094 42.416 22.5703 42.5137 22.5312C42.6309 22.7266 42.7188 22.8242 42.7773 22.8242C42.8359 22.8242 42.8555 22.8535 42.8359 22.9121C42.9141 22.9512 42.9922 22.9609 43.0703 22.9414C43.168 22.9219 43.2363 22.9316 43.2754 22.9707C43.3535 23.0098 43.4316 23.0293 43.5098 23.0293C43.5879 23.0293 43.6758 23.0293 43.7734 23.0293C43.9297 22.7754 44.0176 22.6094 44.0371 22.5312C43.998 22.2773 43.998 22.0332 44.0371 21.7988C44.0957 21.5645 44.1152 21.3203 44.0957 21.0664C44.0566 20.8711 44.0469 20.7734 44.0664 20.7734C44.0859 20.7539 44.0957 20.7246 44.0957 20.6855C44.0957 20.5488 44.0762 20.4219 44.0371 20.3047C43.998 20.168 43.9785 20.041 43.9785 19.9238C43.9785 19.8262 43.998 19.748 44.0371 19.6895C44.0762 19.6309 44.0957 19.5625 44.0957 19.4844C44.0957 19.3281 44.0762 19.2109 44.0371 19.1328C44.0176 19.0352 44.0566 18.8984 44.1543 18.7227C44.1152 18.5664 44.1055 18.459 44.125 18.4004C44.1641 18.3418 44.1934 18.2832 44.2129 18.2246C44.2129 18.166 44.2031 18.1172 44.1836 18.0781C44.1836 18.0195 44.1934 17.9609 44.2129 17.9023C44.2324 17.7852 44.2617 17.6777 44.3008 17.5801C44.3398 17.4629 44.3594 17.3457 44.3594 17.2285C44.3594 17.1504 44.3398 17.082 44.3008 17.0234C44.2812 16.9648 44.2715 16.8965 44.2715 16.8184C44.2324 16.6816 44.2227 16.5547 44.2422 16.4375C44.2617 16.3008 44.2715 16.1641 44.2715 16.0273C44.252 15.9688 44.2715 15.9199 44.3301 15.8809C44.3887 15.8418 44.418 15.7832 44.418 15.7051L44.5938 14.5625C44.6133 14.3672 44.6133 14.1719 44.5938 13.9766C44.5938 13.7812 44.6133 13.5762 44.6523 13.3613C44.6719 13.166 44.7012 12.9805 44.7402 12.8047C44.7793 12.6094 44.7988 12.4141 44.7988 12.2188C44.8184 12.0625 44.8086 11.916 44.7695 11.7793C44.75 11.6426 44.7402 11.4961 44.7402 11.3398C44.7402 11.0859 44.7598 10.8418 44.7988 10.6074C44.8379 10.373 44.8574 10.1289 44.8574 9.875C44.8574 9.62109 44.8477 9.36719 44.8281 9.11328C44.8086 8.85938 44.8184 8.60547 44.8574 8.35156C44.877 8.33203 44.8965 8.24414 44.916 8.08789C44.9551 7.93164 44.9746 7.83398 44.9746 7.79492C44.9746 7.6582 44.9648 7.53125 44.9453 7.41406C44.9258 7.27734 44.916 7.13086 44.916 6.97461C44.9551 6.75977 44.9648 6.63281 44.9453 6.59375C44.9258 6.55469 44.916 6.51562 44.916 6.47656C44.8965 6.28125 44.8965 6.08594 44.916 5.89062C44.9355 5.69531 44.9355 5.5 44.916 5.30469C44.877 5.07031 44.8672 4.94336 44.8867 4.92383C44.9258 4.88477 44.9551 4.8457 44.9746 4.80664C44.9941 4.55273 45.0137 4.36719 45.0332 4.25C45.0723 4.11328 45.1016 3.9668 45.1211 3.81055C45.1602 3.53711 45.1797 3.26367 45.1797 2.99023C45.1797 2.7168 45.1797 2.44336 45.1797 2.16992C44.9844 2.0332 44.7402 1.98438 44.4473 2.02344C44.1738 2.04297 43.9004 2.0918 43.627 2.16992C43.3535 2.24805 43.1094 2.33594 42.8945 2.43359C42.6797 2.51172 42.5527 2.55078 42.5137 2.55078C42.4355 2.55078 42.3672 2.53125 42.3086 2.49219C42.25 2.45312 42.2305 2.38477 42.25 2.28711C42.1133 2.20898 42.0352 2.14062 42.0156 2.08203C41.9961 2.02344 41.9961 1.96484 42.0156 1.90625C42.0547 1.84766 42.0938 1.79883 42.1328 1.75977C42.1914 1.70117 42.2109 1.64258 42.1914 1.58398C42.4648 1.54492 42.7285 1.47656 42.9824 1.37891C43.2559 1.28125 43.5391 1.22266 43.832 1.20312C43.9297 1.18359 44.0176 1.18359 44.0957 1.20312C44.1738 1.20312 44.2617 1.20312 44.3594 1.20312C44.5547 1.18359 44.7402 1.16406 44.916 1.14453C45.0918 1.10547 45.2773 1.06641 45.4727 1.02734C45.6094 1.02734 45.707 1.01758 45.7656 0.998047C45.8242 0.958984 45.8828 0.939453 45.9414 0.939453C46.1758 0.958984 46.3027 0.96875 46.3223 0.96875C46.3613 0.949219 46.4004 0.939453 46.4395 0.939453C46.5566 0.919922 46.6738 0.929688 46.791 0.96875C46.9082 0.988281 47.0254 0.988281 47.1426 0.96875C47.2207 0.96875 47.3086 0.949219 47.4062 0.910156C47.5039 0.871094 47.582 0.861328 47.6406 0.880859C47.7773 0.841797 47.9043 0.841797 48.0215 0.880859C48.1387 0.919922 48.2656 0.939453 48.4023 0.939453C48.5586 0.939453 48.7051 0.919922 48.8418 0.880859C48.9785 0.841797 49.125 0.822266 49.2812 0.822266C49.4375 0.822266 49.5938 0.851562 49.75 0.910156C49.9258 0.949219 50.0918 0.96875 50.248 0.96875C50.3457 0.96875 50.4238 0.958984 50.4824 0.939453C50.541 0.919922 50.6094 0.919922 50.6875 0.939453C50.8047 0.939453 50.9121 0.958984 51.0098 0.998047C51.127 1.03711 51.2441 1.06641 51.3613 1.08594C51.4395 1.10547 51.5078 1.10547 51.5664 1.08594C51.6445 1.04688 51.7227 1.02734 51.8008 1.02734C51.8398 1.02734 51.8887 1.03711 51.9473 1.05664C52.0059 1.07617 52.0645 1.08594 52.123 1.08594C52.2598 1.08594 52.3965 1.07617 52.5332 1.05664C52.6895 1.01758 52.8262 1.06641 52.9434 1.20312C53.2754 1.24219 53.5781 1.31055 53.8516 1.4082C54.1445 1.48633 54.4375 1.58398 54.7305 1.70117C54.8477 1.74023 54.9355 1.79883 54.9941 1.87695C55.0723 1.93555 55.1895 1.94531 55.3457 1.90625C55.4824 2.0625 55.6094 2.19922 55.7266 2.31641C55.8633 2.41406 56.0391 2.48242 56.2539 2.52148C56.3516 2.61914 56.4297 2.72656 56.4883 2.84375C56.6836 2.96094 56.8105 3.0293 56.8691 3.04883C56.9277 3.06836 56.9766 3.08789 57.0156 3.10742C57.0742 3.18555 57.1328 3.25391 57.1914 3.3125C57.2695 3.35156 57.3574 3.40039 57.4551 3.45898C57.5527 3.53711 57.6602 3.61523 57.7773 3.69336C57.8359 3.77148 57.875 3.84961 57.8945 3.92773C57.9336 4.00586 57.9727 4.07422 58.0117 4.13281C58.0508 4.21094 58.1094 4.25977 58.1875 4.2793C58.2656 4.2793 58.2949 4.34766 58.2754 4.48438C58.4902 4.71875 58.627 4.9043 58.6855 5.04102C58.7637 5.1582 58.8516 5.27539 58.9492 5.39258C59.0664 5.54883 59.125 5.64648 59.125 5.68555C59.125 5.70508 59.1348 5.73438 59.1543 5.77344C59.252 5.85156 59.291 5.92969 59.2715 6.00781C59.2715 6.06641 59.3203 6.08594 59.418 6.06641C59.3789 6.16406 59.3887 6.23242 59.4473 6.27148C59.5059 6.31055 59.5156 6.39844 59.4766 6.53516C59.5742 6.65234 59.6621 6.7793 59.7402 6.91602C59.8379 7.05273 59.8574 7.19922 59.7988 7.35547C59.916 7.51172 60.0137 7.67773 60.0918 7.85352C60.1699 8.00977 60.2773 8.15625 60.4141 8.29297C60.4336 8.42969 60.4434 8.54688 60.4434 8.64453C60.4629 8.74219 60.5215 8.83984 60.6191 8.9375C60.6387 9.15234 60.6777 9.35742 60.7363 9.55273C60.8145 9.74805 60.8926 9.94336 60.9707 10.1387C61.0098 10.2363 61.0195 10.3438 61 10.4609C61 10.5586 61 10.6562 61 10.7539C61.0195 10.8516 61.0488 10.9395 61.0879 11.0176C61.127 11.0957 61.1562 11.1836 61.1758 11.2812C61.1953 11.3594 61.1953 11.4277 61.1758 11.4863C61.1562 11.5449 61.1562 11.6035 61.1758 11.6621C61.1953 11.7207 61.2148 11.7793 61.2344 11.8379C61.2539 11.8965 61.2734 11.9551 61.293 12.0137C61.332 12.2871 61.3223 12.5605 61.2637 12.834C61.2051 13.0879 61.1562 13.3516 61.1172 13.625C61.0977 13.8203 61.0781 14.0156 61.0586 14.2109C61.0586 14.4062 61.0391 14.6016 61 14.7969C60.9805 14.875 60.9512 14.9531 60.9121 15.0312C60.8926 15.1094 60.873 15.1875 60.8535 15.2656C60.7754 15.5977 60.7266 15.9199 60.707 16.2324C60.707 16.5449 60.6582 16.8672 60.5605 17.1992C60.5215 17.3555 60.4629 17.5117 60.3848 17.668C60.3262 17.8242 60.2773 17.9902 60.2383 18.166C60.2383 18.2051 60.1797 18.3027 60.0625 18.459C59.9648 18.6152 59.8965 18.7031 59.8574 18.7227C59.8574 18.8008 59.8379 18.8594 59.7988 18.8984C59.7793 18.9375 59.7793 19.0059 59.7988 19.1035C59.7793 19.1035 59.7305 19.1426 59.6523 19.2207C59.5742 19.2793 59.4863 19.3477 59.3887 19.4258C59.3105 19.4844 59.2324 19.5527 59.1543 19.6309C59.0957 19.6895 59.0566 19.7285 59.0371 19.748C58.9785 19.9043 58.9004 20.0215 58.8027 20.0996C58.7051 20.1582 58.6367 20.207 58.5977 20.2461C58.3828 20.4609 58.168 20.6562 57.9531 20.832C57.7383 21.0078 57.5234 21.1934 57.3086 21.3887C57.2305 21.4473 57.1426 21.4961 57.0449 21.5352C56.9668 21.5742 56.8887 21.6133 56.8105 21.6523C56.7715 21.6914 56.7227 21.7305 56.6641 21.7695C56.625 21.8086 56.5859 21.8477 56.5469 21.8867C56.3906 21.9258 56.3125 21.9551 56.3125 21.9746C56.3125 21.9941 56.293 22.0137 56.2539 22.0332C56.2148 22.0723 56.166 22.0918 56.1074 22.0918C56.0488 22.0918 55.9902 22.1113 55.9316 22.1504C55.6582 22.2871 55.4727 22.3945 55.375 22.4727C55.2773 22.5312 55.1699 22.5898 55.0527 22.6484C55.0137 22.668 54.9648 22.6875 54.9062 22.707C54.8477 22.707 54.7891 22.7266 54.7305 22.7656C54.4375 22.9023 54.2324 22.9805 54.1152 23C53.998 23.0391 53.8809 23.0879 53.7637 23.1465C53.666 23.1855 53.5684 23.2246 53.4707 23.2637C53.373 23.3223 53.2656 23.3711 53.1484 23.4102L52.8262 23.3516C52.6309 23.4492 52.5039 23.5078 52.4453 23.5273C52.4062 23.5469 52.3672 23.5566 52.3281 23.5566C52.1719 23.5957 51.9961 23.6152 51.8008 23.6152C51.6055 23.6152 51.4395 23.6738 51.3027 23.791C50.9121 23.752 50.5215 23.7715 50.1309 23.8496C49.7598 23.9473 49.3887 24.0156 49.0176 24.0547C48.8223 24.0938 48.7051 24.1035 48.666 24.084C48.6465 24.0645 48.6172 24.0547 48.5781 24.0547C48.3828 24.0742 48.1973 24.1133 48.0215 24.1719C47.8457 24.2305 47.6602 24.2695 47.4648 24.2891C47.3086 24.2891 47.1426 24.2695 46.9668 24.2305C46.791 24.1914 46.6152 24.1719 46.4395 24.1719C46.3809 24.1719 46.3223 24.1816 46.2637 24.2012C46.2246 24.2207 46.1758 24.2305 46.1172 24.2305C45.9219 24.1914 45.8145 24.1816 45.7949 24.2012C45.7949 24.2207 45.7754 24.2305 45.7363 24.2305C45.6777 24.2305 45.6191 24.2109 45.5605 24.1719C45.5215 24.1328 45.4727 24.1133 45.4141 24.1133C45.2969 24.1133 45.1797 24.123 45.0625 24.1426C44.9648 24.1621 44.8574 24.1719 44.7402 24.1719C44.7012 24.1719 44.6523 24.1621 44.5938 24.1426C44.5352 24.123 44.4766 24.1133 44.418 24.1133C44.3594 24.1133 44.3008 24.123 44.2422 24.1426C44.2031 24.1621 44.1543 24.1719 44.0957 24.1719C43.9395 24.0938 43.8418 24.0547 43.8027 24.0547C43.7832 24.0742 43.7539 24.0742 43.7148 24.0547C43.5586 24.0352 43.4219 24.0059 43.3047 23.9668C43.1875 23.9277 43.0508 23.9082 42.8945 23.9082C42.7969 23.8887 42.6895 23.8887 42.5723 23.9082C42.4551 23.9473 42.3477 23.9473 42.25 23.9082ZM52.5625 22.5898C52.7383 22.5508 52.8262 22.5312 52.8262 22.5312C52.8262 22.5117 52.8457 22.4922 52.8848 22.4727C52.9434 22.4336 53.0117 22.4141 53.0898 22.4141C53.168 22.4141 53.2461 22.3945 53.3242 22.3555C53.5977 22.2773 53.9004 22.1406 54.2324 21.9453C54.3887 21.8477 54.4766 21.7988 54.4961 21.7988C54.5352 21.7988 54.5742 21.7891 54.6133 21.7695C54.8477 21.6328 55.0332 21.5449 55.1699 21.5059C55.3066 21.4473 55.4336 21.3887 55.5508 21.3301C55.6094 21.291 55.6582 21.2617 55.6973 21.2422C55.7559 21.2031 55.8145 21.1641 55.873 21.125C55.9316 21.0859 55.9902 21.0566 56.0488 21.0371C56.127 21.0176 56.1953 20.9883 56.2539 20.9492C56.3125 20.9102 56.3613 20.8711 56.4004 20.832C56.4395 20.7734 56.4883 20.7246 56.5469 20.6855C56.5859 20.6465 56.6348 20.6074 56.6934 20.5684C56.752 20.5293 56.8105 20.4902 56.8691 20.4512C56.9668 20.3535 57.0547 20.2656 57.1328 20.1875C57.2305 20.0898 57.3574 20.0215 57.5137 19.9824C57.5723 19.7871 57.6602 19.6699 57.7773 19.6309C57.9141 19.5723 58.0508 19.4844 58.1875 19.3672C58.1875 19.3672 58.2168 19.3281 58.2754 19.25C58.334 19.1719 58.4023 19.0938 58.4805 19.0156C58.5586 18.9375 58.627 18.8594 58.6855 18.7812C58.7441 18.7031 58.7734 18.6641 58.7734 18.6641C58.9492 18.4883 59.0273 18.3809 59.0078 18.3418C59.0078 18.3027 59.0176 18.2637 59.0371 18.2246C59.1934 18.0684 59.2617 17.9512 59.2422 17.873C59.2227 17.7949 59.2324 17.7266 59.2715 17.668C59.4863 17.4922 59.584 17.2676 59.5645 16.9941C59.5645 16.7207 59.6133 16.4766 59.7109 16.2617C59.7891 16.1641 59.8086 16.0957 59.7695 16.0566C59.75 16.0176 59.75 15.9785 59.7695 15.9395C59.7891 15.5684 59.8574 15.1973 59.9746 14.8262C60.0918 14.4355 60.1504 14.0742 60.1504 13.7422C60.1504 13.6836 60.1309 13.6348 60.0918 13.5957C60.0723 13.5371 60.0723 13.4785 60.0918 13.4199C60.0918 13.4004 60.1016 13.3516 60.1211 13.2734C60.1406 13.1758 60.1602 13.0781 60.1797 12.9805C60.2188 12.8633 60.248 12.7656 60.2676 12.6875C60.2871 12.5898 60.2969 12.541 60.2969 12.541C60.1992 12.502 60.1602 12.4434 60.1797 12.3652C60.2188 12.2871 60.2578 12.2188 60.2969 12.1602C60.2383 12.1211 60.209 12.0723 60.209 12.0137C60.209 11.9355 60.1992 11.8574 60.1797 11.7793C60.1797 11.584 60.1699 11.4375 60.1504 11.3398C60.1113 11.2617 60.0723 11.1934 60.0332 11.1348C60.0137 11.0762 59.9941 10.998 59.9746 10.9004C59.9551 10.8027 59.9355 10.6758 59.916 10.5195C59.916 10.3633 59.8965 10.2363 59.8574 10.1387C59.8184 10.041 59.7988 9.95312 59.7988 9.875C59.8184 9.77734 59.8086 9.68945 59.7695 9.61133C59.6914 9.43555 59.6328 9.30859 59.5938 9.23047C59.5547 9.13281 59.5156 9.04492 59.4766 8.9668C59.4375 8.86914 59.4082 8.79102 59.3887 8.73242C59.3691 8.6543 59.3789 8.61523 59.418 8.61523C59.3594 8.51758 59.2715 8.37109 59.1543 8.17578C59.0566 7.96094 58.9883 7.83398 58.9492 7.79492C58.9492 7.61914 58.8711 7.45312 58.7148 7.29688C58.7148 7.19922 58.6953 7.12109 58.6562 7.0625C58.6172 6.98438 58.5684 6.90625 58.5098 6.82812V6.47656C58.3926 6.37891 58.3047 6.26172 58.2461 6.125C58.207 5.96875 58.1094 5.85156 57.9531 5.77344C57.9336 5.65625 57.875 5.56836 57.7773 5.50977C57.6992 5.45117 57.6699 5.34375 57.6895 5.1875C57.4941 4.97266 57.3281 4.82617 57.1914 4.74805C57.0742 4.65039 56.9668 4.57227 56.8691 4.51367C56.8496 4.47461 56.8105 4.41602 56.752 4.33789C56.7129 4.24023 56.6738 4.17188 56.6348 4.13281C56.498 4.09375 56.3809 4.03516 56.2832 3.95703C56.1855 3.87891 56.0781 3.79102 55.9609 3.69336C55.8438 3.57617 55.7363 3.47852 55.6387 3.40039C55.541 3.30273 55.4922 3.24414 55.4922 3.22461C55.4531 3.22461 55.3652 3.19531 55.2285 3.13672C55.1113 3.05859 54.9746 2.98047 54.8184 2.90234C54.6816 2.82422 54.5449 2.75586 54.4082 2.69727C54.291 2.61914 54.2227 2.56055 54.2031 2.52148C54.1055 2.56055 54.0176 2.57031 53.9395 2.55078C53.8613 2.51172 53.7832 2.47266 53.7051 2.43359C53.6465 2.39453 53.5781 2.36523 53.5 2.3457C53.4219 2.30664 53.3438 2.30664 53.2656 2.3457C53.1289 2.20898 52.9629 2.15039 52.7676 2.16992C52.5723 2.16992 52.3965 2.15039 52.2402 2.11133C51.8887 2.01367 51.6152 1.95508 51.4199 1.93555C51.2441 1.91602 51.0781 1.90625 50.9219 1.90625C50.8242 1.90625 50.7266 1.91602 50.6289 1.93555C50.5508 1.95508 50.4629 1.96484 50.3652 1.96484C50.2285 1.84766 50.1113 1.80859 50.0137 1.84766C49.916 1.86719 49.8184 1.88672 49.7207 1.90625C49.6035 1.80859 49.4277 1.7793 49.1934 1.81836C48.959 1.85742 48.7734 1.88672 48.6367 1.90625C48.5781 2.0625 48.5684 2.21875 48.6074 2.375C48.6465 2.53125 48.666 2.6875 48.666 2.84375C48.666 2.90234 48.6562 2.96094 48.6367 3.01953C48.6172 3.07812 48.6172 3.14648 48.6367 3.22461V4.68945C48.6953 4.82617 48.7051 4.92383 48.666 4.98242C48.627 5.02148 48.6172 5.08984 48.6367 5.1875C48.6367 5.40234 48.666 5.61719 48.7246 5.83203C48.8027 6.04688 48.8418 6.26172 48.8418 6.47656C48.8223 6.78906 48.8125 7.0918 48.8125 7.38477C48.8125 7.67773 48.8418 7.98047 48.9004 8.29297C48.8027 8.37109 48.7637 8.43945 48.7832 8.49805C48.8027 8.55664 48.8223 8.63477 48.8418 8.73242C48.8809 8.9668 48.9004 9.24023 48.9004 9.55273C48.9004 9.8457 48.8613 10.0996 48.7832 10.3145C48.8613 10.6074 48.9004 10.9102 48.9004 11.2227C48.9004 11.5352 48.8809 11.8477 48.8418 12.1602C48.8027 12.4336 48.793 12.7266 48.8125 13.0391C48.8516 13.3516 48.9004 13.6445 48.959 13.918C48.8613 13.957 48.8223 14.0254 48.8418 14.123C48.8613 14.2012 48.8613 14.2793 48.8418 14.3574C48.8223 14.4355 48.793 14.5137 48.7539 14.5918C48.7148 14.6699 48.6855 14.748 48.666 14.8262C48.6465 14.9824 48.6367 15.1387 48.6367 15.2949C48.6367 15.4316 48.6172 15.5684 48.5781 15.7051C48.7148 15.9199 48.7344 16.1543 48.6367 16.4082C48.5586 16.6426 48.5 16.8672 48.4609 17.082C48.4023 17.5508 48.4219 18.0391 48.5195 18.5469C48.4219 18.6445 48.3828 18.7422 48.4023 18.8398C48.4414 18.918 48.4609 19.0059 48.4609 19.1035C48.4023 19.3965 48.373 19.6113 48.373 19.748C48.3926 19.8848 48.4023 20.0312 48.4023 20.1875C48.4023 20.3047 48.3926 20.4609 48.373 20.6562C48.3535 20.832 48.334 21.0176 48.3145 21.2129C48.2949 21.3887 48.2949 21.5645 48.3145 21.7402C48.334 21.916 48.3828 22.0527 48.4609 22.1504C48.3633 22.1895 48.334 22.2578 48.373 22.3555C48.4316 22.4336 48.4805 22.4922 48.5195 22.5312C48.5 22.7266 48.5195 22.873 48.5781 22.9707C48.6367 23.0488 48.6855 23.1172 48.7246 23.1758C48.9004 23.1562 49.0762 23.1465 49.252 23.1465C49.4277 23.1465 49.6035 23.127 49.7793 23.0879C49.8379 23.0684 49.8965 23.0391 49.9551 23C50.0332 22.9609 50.1016 22.9316 50.1602 22.9121C50.3555 22.9707 50.5703 22.9609 50.8047 22.8828C51.0391 22.8047 51.2246 22.7656 51.3613 22.7656C51.5371 22.7852 51.6543 22.7754 51.7129 22.7363C51.7715 22.6973 51.8301 22.668 51.8887 22.6484C52.123 22.6289 52.2402 22.6094 52.2402 22.5898C52.2598 22.5508 52.2891 22.5312 52.3281 22.5312L52.5625 22.5898ZM46.3809 1.90625C46.3223 2.16016 46.2734 2.42383 46.2344 2.69727C46.1953 2.95117 46.1758 3.21484 46.1758 3.48828C46.2148 3.85938 46.2051 4.14258 46.1465 4.33789C46.0879 4.5332 46.0977 4.71875 46.1758 4.89453C45.9805 5.03125 45.8926 5.20703 45.9121 5.42188C45.9316 5.63672 45.9609 5.83203 46 6.00781C45.9805 6.35938 45.9609 6.61328 45.9414 6.76953C45.9219 6.92578 45.9219 7.0918 45.9414 7.26758C45.9609 7.36523 45.9805 7.45312 46 7.53125C46.0391 7.60938 46.0586 7.69727 46.0586 7.79492C46.0586 7.95117 46.0391 8.11719 46 8.29297C45.9609 8.46875 45.9219 8.63477 45.8828 8.79102C45.8633 8.92773 45.8535 9.06445 45.8535 9.20117C45.8535 9.31836 45.8535 9.45508 45.8535 9.61133C45.8535 9.68945 45.8633 9.76758 45.8828 9.8457C45.9023 9.9043 45.9023 9.97266 45.8828 10.0508C45.8828 10.1289 45.8633 10.1973 45.8242 10.2559C45.8047 10.3145 45.7949 10.3828 45.7949 10.4609C45.7754 10.6367 45.7754 10.8027 45.7949 10.959C45.834 11.0957 45.8145 11.2422 45.7363 11.3984C45.7949 11.5156 45.8535 11.6328 45.9121 11.75C45.9707 11.8672 45.9609 11.9844 45.8828 12.1016C45.8828 12.1992 45.8926 12.2773 45.9121 12.3359C45.9316 12.3945 45.9219 12.4629 45.8828 12.541C45.8633 12.6582 45.8438 12.7754 45.8242 12.8926C45.8242 12.9902 45.8145 13.0977 45.7949 13.2148C45.7754 13.2734 45.7461 13.332 45.707 13.3906C45.6875 13.4492 45.6777 13.5176 45.6777 13.5957C45.6777 13.6543 45.6875 13.7129 45.707 13.7715C45.7266 13.8301 45.7363 13.8984 45.7363 13.9766C45.7363 14.0938 45.7266 14.2207 45.707 14.3574C45.707 14.4746 45.6973 14.6016 45.6777 14.7383C45.6582 14.7969 45.6387 14.8555 45.6191 14.9141C45.5996 14.9531 45.5801 15.002 45.5605 15.0605C45.5605 15.1191 45.5605 15.1777 45.5605 15.2363C45.5801 15.2754 45.5801 15.3242 45.5605 15.3828C45.541 15.4609 45.5117 15.5391 45.4727 15.6172C45.4531 15.6758 45.4336 15.7441 45.4141 15.8223C45.3555 16.0957 45.3359 16.3691 45.3555 16.6426C45.375 16.916 45.375 17.1895 45.3555 17.4629C45.3555 17.541 45.3359 17.6191 45.2969 17.6973C45.2773 17.7559 45.2969 17.8242 45.3555 17.9023C45.2773 18.0586 45.2188 18.1855 45.1797 18.2832C45.2578 18.5176 45.2285 18.791 45.0918 19.1035C45.1113 19.2012 45.1309 19.2891 45.1504 19.3672C45.1699 19.4453 45.1797 19.5332 45.1797 19.6309C45.1797 19.6895 45.1602 19.748 45.1211 19.8066C45.1016 19.8652 45.0918 19.9238 45.0918 19.9824C45.0723 20.041 45.0723 20.0996 45.0918 20.1582C45.1113 20.2168 45.1211 20.2852 45.1211 20.3633C45.1211 20.5781 45.1016 20.7832 45.0625 20.9785C45.043 21.1738 45.0332 21.3789 45.0332 21.5938C45.0332 21.6914 45.0527 21.8184 45.0918 21.9746C45.0918 22.1309 45.0723 22.2773 45.0332 22.4141C45.0137 22.5508 45.043 22.6777 45.1211 22.7949C45.1211 22.873 45.0918 22.9609 45.0332 23.0586C44.9746 23.1758 44.9746 23.2539 45.0332 23.293C45.2285 23.3516 45.3555 23.3613 45.4141 23.3223C45.4922 23.3027 45.5605 23.293 45.6191 23.293C45.6777 23.293 45.7266 23.3027 45.7656 23.3223C45.8242 23.3418 45.8828 23.3516 45.9414 23.3516C46.0195 23.3516 46.0879 23.3418 46.1465 23.3223C46.2051 23.3027 46.2637 23.293 46.3223 23.293C46.3809 23.293 46.4395 23.3027 46.498 23.3223C46.5566 23.3418 46.6152 23.3516 46.6738 23.3516C46.7715 23.3516 46.8691 23.3223 46.9668 23.2637C47.0645 23.2051 47.1621 23.1953 47.2598 23.2344C47.2402 23.0781 47.2402 22.9219 47.2598 22.7656C47.2988 22.5898 47.3184 22.4238 47.3184 22.2676C47.2988 22.0527 47.2695 21.8477 47.2305 21.6523C47.2109 21.457 47.2012 21.2617 47.2012 21.0664C47.2402 20.7734 47.25 20.5684 47.2305 20.4512C47.2109 20.334 47.2402 20.2266 47.3184 20.1289C47.2402 19.9531 47.2305 19.7969 47.2891 19.6602C47.3672 19.5234 47.377 19.3574 47.3184 19.1621C47.4551 19.0059 47.5039 18.8594 47.4648 18.7227C47.4453 18.5859 47.4355 18.4395 47.4355 18.2832C47.4746 17.9902 47.4746 17.7949 47.4355 17.6973C47.416 17.5996 47.416 17.502 47.4355 17.4043C47.4355 17.248 47.4453 17.0918 47.4648 16.9355C47.5039 16.7793 47.5234 16.623 47.5234 16.4668C47.543 16.3496 47.543 16.2324 47.5234 16.1152C47.5234 15.998 47.5234 15.8809 47.5234 15.7637C47.5234 15.7051 47.5137 15.6465 47.4941 15.5879C47.4941 15.5098 47.5039 15.4414 47.5234 15.3828C47.6211 15.168 47.6602 14.9629 47.6406 14.7676C47.6211 14.5527 47.6406 14.3379 47.6992 14.123C47.7773 13.9668 47.8164 13.8496 47.8164 13.7715C47.8359 13.6738 47.8555 13.5664 47.875 13.4492C47.8945 13.332 47.9043 13.2344 47.9043 13.1562C47.9043 13.0586 47.9043 13 47.9043 12.9805C47.9043 12.9023 47.8848 12.834 47.8457 12.7754C47.8262 12.6973 47.8164 12.6191 47.8164 12.541C47.7969 12.4629 47.7969 12.3848 47.8164 12.3066C47.8555 12.2285 47.8652 12.1406 47.8457 12.043C47.8262 11.6523 47.8262 11.2617 47.8457 10.8711C47.8652 10.4609 47.8652 10.0605 47.8457 9.66992C47.8457 9.57227 47.8359 9.48438 47.8164 9.40625C47.8164 9.32812 47.8164 9.25 47.8164 9.17188C47.7969 8.9375 47.7773 8.71289 47.7578 8.49805C47.7578 8.26367 47.7578 8.0293 47.7578 7.79492C47.7578 7.73633 47.7676 7.67773 47.7871 7.61914C47.8066 7.56055 47.8164 7.49219 47.8164 7.41406C47.8164 7.33594 47.8066 7.25781 47.7871 7.17969C47.7676 7.10156 47.7578 7.01367 47.7578 6.91602C47.7383 6.52539 47.709 6.13477 47.6699 5.74414C47.6504 5.35352 47.6406 4.96289 47.6406 4.57227C47.6406 4.41602 47.6211 4.24023 47.582 4.04492C47.5625 3.83008 47.6016 3.64453 47.6992 3.48828C47.6016 3.29297 47.5625 3.09766 47.582 2.90234C47.6016 2.6875 47.5332 2.48242 47.377 2.28711C47.3184 2.22852 47.3086 2.15039 47.3477 2.05273C47.4062 1.93555 47.3574 1.86719 47.2012 1.84766C47.0645 1.92578 46.9277 1.95508 46.791 1.93555C46.6738 1.91602 46.5371 1.90625 46.3809 1.90625Z" fill="black"/>
</svg>
