<svg width="22" height="26" viewBox="0 0 22 26" fill="none" xmlns="http://www.w3.org/2000/svg">
<g clip-path="url(#clip0_427_411)">
<path d="M11.72 26C11.19 26 10.76 25.57 10.76 25.04V20.75C10.76 20.22 11.19 19.79 11.72 19.79C12.25 19.79 12.68 20.22 12.68 20.75V25.04C12.68 25.57 12.25 26 11.72 26Z" fill="#222222"/>
<path d="M0.279995 23.99C-0.100005 23.61 -0.100005 23 0.279995 22.63L20.36 2.45004C20.74 2.07004 21.34 2.07004 21.72 2.45004C22.1 2.83004 22.1 3.44004 21.72 3.81004L1.64 23.99C1.26 24.37 0.659995 24.37 0.279995 23.99Z" fill="#222222"/>
<path d="M4.78999 15.3796C4.30999 14.3696 4.02999 13.2496 4.02999 12.0596C4.02999 11.5296 3.59999 11.0996 3.06999 11.0996C2.53999 11.0996 2.10999 11.5296 2.10999 12.0596C2.10999 13.7896 2.56999 15.4096 3.36999 16.8096L4.78999 15.3796Z" fill="#222222"/>
<path d="M20.36 11.0998C19.83 11.0998 19.4 11.5298 19.4 12.0598C19.4 16.3198 15.95 19.7798 11.72 19.7798C9.37 19.7798 7.27 18.7098 5.86 17.0398L4.5 18.3998C6.26 20.4198 8.84 21.6998 11.72 21.6998C17.02 21.6998 21.32 17.3698 21.32 12.0498C21.32 11.5198 20.89 11.0898 20.36 11.0898V11.0998Z" fill="#222222"/>
<path d="M8.24999 14.6401C9.03999 15.7101 10.29 16.4101 11.71 16.4101C14.1 16.4101 16.03 14.4701 16.03 12.0701V6.81006L8.23999 14.6301L8.24999 14.6401Z" fill="#222222"/>
<path d="M16.02 4.11C15.9 1.82 14.03 0 11.72 0C9.41002 0 7.40002 1.94 7.40002 4.34V12.06C7.40002 12.28 7.43002 12.49 7.46002 12.7L16.02 4.11Z" fill="#222222"/>
</g>
<defs>
<clipPath id="clip0_427_411">
<rect width="22" height="26" fill="white"/>
</clipPath>
</defs>
</svg>
