<svg width="100" height="100" viewBox="0 0 100 100" fill="none" xmlns="http://www.w3.org/2000/svg">
<path d="M50 100C77.6142 100 100 77.6142 100 50C100 22.3858 77.6142 0 50 0C22.3858 0 0 22.3858 0 50C0 77.6142 22.3858 100 50 100Z" fill="#E8F9EC"/>
<path d="M62.7401 20.6499C63.0801 20.7599 63.0801 21.2399 62.7401 21.3599C62.0201 21.5999 61.1901 21.9799 60.5801 22.5899C59.9701 23.1999 59.5901 24.0299 59.3501 24.7499C59.2401 25.0899 58.7601 25.0899 58.6401 24.7499C58.4001 24.0299 58.0201 23.1999 57.4101 22.5899C56.8001 21.9799 55.9701 21.5999 55.2501 21.3599C54.9101 21.2499 54.9101 20.7699 55.2501 20.6499C55.9701 20.4099 56.8001 20.0299 57.4101 19.4199C58.0201 18.8099 58.4001 17.9799 58.6401 17.2599C58.7501 16.9199 59.2301 16.9199 59.3501 17.2599C59.5901 17.9799 59.9701 18.8099 60.5801 19.4199C61.1901 20.0299 62.0201 20.4099 62.7401 20.6499Z" fill="#65E15D"/>
<path d="M74.61 31.47C75.13 31.64 75.13 32.36 74.61 32.53C73.53 32.89 72.28 33.46 71.37 34.37C70.46 35.28 69.88 36.53 69.53 37.61C69.36 38.13 68.64 38.13 68.47 37.61C68.11 36.53 67.54 35.28 66.63 34.37C65.72 33.46 64.47 32.88 63.39 32.53C62.87 32.36 62.87 31.64 63.39 31.47C64.47 31.11 65.72 30.54 66.63 29.63C67.54 28.72 68.12 27.47 68.47 26.39C68.64 25.87 69.36 25.87 69.53 26.39C69.89 27.47 70.46 28.72 71.37 29.63C72.28 30.54 73.53 31.12 74.61 31.47Z" fill="#65E15D"/>
<path d="M26 45H24C22.8954 45 22 45.8954 22 47V73C22 74.1046 22.8954 75 24 75H26C27.1046 75 28 74.1046 28 73V47C28 45.8954 27.1046 45 26 45Z" fill="#65E15D"/>
<path d="M49.26 40.9198L51.69 34.6098C52.19 33.3198 51.88 31.8598 50.9 30.8898C49.57 29.5598 47.41 29.5198 46.04 30.8198L32.26 43.8098C31.46 44.5698 31 45.6198 31 46.7198V70.9898C31 73.1998 32.79 74.9898 35 74.9898H59.93C61.74 74.9898 63.33 73.7698 63.79 72.0198L69.66 50.0198C70.34 47.4798 68.42 44.9898 65.8 44.9898H52.07C49.96 44.9898 48.51 42.8798 49.27 40.9098L49.26 40.9198Z" fill="#00C73C"/>
</svg>
