<svg width="16" height="16" viewBox="0 0 16 16" fill="none" xmlns="http://www.w3.org/2000/svg">
<g clip-path="url(#clip0_289_824)">
<path d="M13.37 2H2.63C1.73 2 1 2.73 1 3.63V12.37C1 13.27 1.73 14 2.63 14H13.37C14.27 14 15 13.27 15 12.37V3.63C15 2.73 14.27 2 13.37 2Z" fill="#D0F1DA"/>
<path d="M9.65 10.34C10.19 11.29 10.5 12.39 10.5 13.56V14H13.37C14.27 14 15 13.27 15 12.37V8H14.05C12.22 8 10.61 8.93 9.65 10.34Z" fill="#87E2A3"/>
<path d="M9.65 10.34C8.53 8.35 6.39 7 3.94 7H1V12.37C1 13.27 1.73 14 2.63 14H10.5V13.56C10.5 12.39 10.19 11.3 9.65 10.34Z" fill="#00C63C"/>
<path d="M11 7C11.8284 7 12.5 6.32843 12.5 5.5C12.5 4.67157 11.8284 4 11 4C10.1716 4 9.5 4.67157 9.5 5.5C9.5 6.32843 10.1716 7 11 7Z" fill="#F9B300"/>
</g>
<defs>
<clipPath id="clip0_289_824">
<rect width="14" height="12" fill="white" transform="translate(1 2)"/>
</clipPath>
</defs>
</svg>
