<svg width="20" height="20" viewBox="0 0 20 20" fill="none" xmlns="http://www.w3.org/2000/svg">
<circle cx="10" cy="10" r="10" fill="#EEEEEE"/>
<path d="M8.95117 11.3281V11.457H10.498V11.3281C10.5039 10.5078 10.7969 10.127 11.459 9.73438C12.2266 9.27148 12.7246 8.66211 12.7246 7.69531C12.7246 6.24805 11.5703 5.39844 9.93555 5.39844C8.43555 5.39844 7.21094 6.18945 7.18164 7.83594H8.8457C8.86914 7.15039 9.37891 6.78711 9.92383 6.78125C10.4922 6.78711 10.9492 7.16797 10.9434 7.75391C10.9492 8.29297 10.5566 8.65625 10.0527 8.98438C9.34961 9.42383 8.95703 9.86914 8.95117 11.3281ZM8.77539 13.1211C8.76367 13.666 9.20898 14.1055 9.75977 14.1055C10.2812 14.1055 10.7324 13.666 10.7324 13.1211C10.7324 12.582 10.2812 12.1426 9.75977 12.1484C9.20898 12.1426 8.76367 12.582 8.77539 13.1211Z" fill="#999999"/>
</svg>
