<svg width="24" height="24" viewBox="0 0 24 24" fill="none" xmlns="http://www.w3.org/2000/svg">
<g clip-path="url(#clip0_1494_208)">
<path d="M12.57 18.39C14.25 16.36 16.93 14.4 21.3 15M14.59 23C14.59 17.7 8.93996 13.4 1.97996 13.4H0.709961" stroke="#666666" stroke-width="1.4" stroke-linejoin="round"/>
<path d="M19.23 3.4C19.99 3.4 20.6 4.02 20.6 4.77V21.23C20.6 21.99 19.98 22.6 19.23 22.6H2.77C2.01 22.6 1.4 21.98 1.4 21.23V4.77C1.4 4.01 2.02 3.4 2.77 3.4H19.23ZM19.23 2H2.77C1.24 2 0 3.24 0 4.77V21.23C0 22.76 1.24 24 2.77 24H19.23C20.76 24 22 22.76 22 21.23V4.77C22 3.24 20.76 2 19.23 2Z" fill="#666666"/>
<path d="M6.83008 7.00999C7.71008 7.00999 8.43008 7.72998 8.43008 8.60998C8.43008 9.48998 7.71008 10.21 6.83008 10.21C5.95008 10.21 5.23008 9.48998 5.23008 8.60998C5.23008 7.72998 5.95008 7.00999 6.83008 7.00999ZM6.83008 5.60999C5.17008 5.60999 3.83008 6.94998 3.83008 8.60998C3.83008 10.27 5.17008 11.61 6.83008 11.61C8.49008 11.61 9.83008 10.27 9.83008 8.60998C9.83008 6.94998 8.49008 5.60999 6.83008 5.60999Z" fill="#666666"/>
<path d="M24 0H14V10H24V0Z" fill="#F4F4F4"/>
<path d="M20 7V1" stroke="#666666" stroke-width="1.4" stroke-linecap="round" stroke-linejoin="round"/>
<path d="M17 4H23" stroke="#666666" stroke-width="1.4" stroke-linecap="round" stroke-linejoin="round"/>
</g>
<defs>
<clipPath id="clip0_1494_208">
<rect width="24" height="24" fill="white"/>
</clipPath>
</defs>
</svg>
