<svg width="24" height="24" viewBox="0 0 24 24" fill="none" xmlns="http://www.w3.org/2000/svg">
<g clip-path="url(#clip0_603_482)">
<path d="M21.87 14.09L21.09 13.65C20.66 13.41 20.42 12.95 20.46 12.47C20.47 12.31 20.48 12.16 20.48 12C20.48 11.53 20.73 11.1 21.15 10.86L21.87 10.45C22.95 9.83999 23.32 8.49999 22.7 7.43999L21.57 5.52999C20.95 4.47999 19.56 4.11999 18.48 4.71999L17.88 5.05999C17.47 5.28999 16.96 5.27999 16.56 5.02999C16.4 4.92999 16.23 4.82999 16.06 4.73999C15.65 4.51999 15.4 4.10999 15.4 3.65999V3.18999C15.4 1.96999 14.39 0.98999 13.14 0.98999H10.88C9.63001 0.98999 8.62001 1.96999 8.62001 3.18999V3.65999C8.62001 4.10999 8.37001 4.51999 7.96001 4.73999C7.79001 4.82999 7.62001 4.92999 7.46001 5.02999C7.06001 5.27999 6.55001 5.28999 6.14001 5.05999L5.54001 4.71999C4.46001 4.10999 3.08001 4.46999 2.45001 5.52999L1.30001 7.44999C0.680009 8.49999 1.05001 9.84999 2.13001 10.46L2.85001 10.87C3.26001 11.1 3.52001 11.53 3.52001 12C3.52001 12.17 3.52001 12.32 3.54001 12.48C3.57001 12.96 3.34001 13.42 2.91001 13.66L2.13001 14.1C1.05001 14.71 0.680009 16.05 1.30001 17.11L2.43001 19.02C3.05001 20.07 4.44001 20.43 5.52001 19.83L6.60001 19.22C6.99001 19 7.46001 19 7.85001 19.21C7.88001 19.23 7.91001 19.24 7.95001 19.26C8.36001 19.48 8.62001 19.89 8.62001 20.35V20.82C8.62001 22.04 9.63001 23.02 10.88 23.02H13.14C14.39 23.02 15.4 22.04 15.4 20.82V20.35C15.4 19.9 15.66 19.48 16.07 19.26C16.1 19.24 16.13 19.23 16.17 19.21C16.56 19 17.03 19 17.42 19.22L18.5 19.83C19.58 20.44 20.96 20.08 21.59 19.02L22.72 17.11C23.34 16.06 22.97 14.71 21.89 14.1L21.87 14.09Z" fill="#DDDDDD"/>
<path d="M12.06 14.9899C13.6672 14.9899 14.97 13.6871 14.97 12.0799C14.97 10.4728 13.6672 9.16992 12.06 9.16992C10.4529 9.16992 9.15002 10.4728 9.15002 12.0799C9.15002 13.6871 10.4529 14.9899 12.06 14.9899Z" fill="#999999"/>
</g>
<defs>
<clipPath id="clip0_603_482">
<rect width="22" height="22" fill="white" transform="translate(1 1)"/>
</clipPath>
</defs>
</svg>
