<svg width="16" height="16" viewBox="0 0 16 16" fill="none" xmlns="http://www.w3.org/2000/svg">
<g clip-path="url(#clip0_266_355)">
<path d="M12.61 6.47003L14.15 4.93003C14.62 4.46003 14.68 3.76003 14.29 3.37003L12.18 1.26003C11.79 0.870026 11.09 0.930026 10.62 1.40003L9.08 2.94003L12.62 6.48003L12.61 6.47003Z" fill="#666666"/>
<path d="M8.23 3.79004L2.28 9.74004C2.17 9.85004 2.08 9.99004 2.03 10.15L1.05 13.25C0.81 14.02 1.53 14.75 2.31 14.51L5.41 13.53C5.56 13.48 5.7 13.4 5.82 13.28L11.77 7.33004L8.23 3.79004Z" fill="#666666"/>
</g>
<defs>
<clipPath id="clip0_266_355">
<rect width="13.55" height="13.55" fill="white" transform="translate(1 1)"/>
</clipPath>
</defs>
</svg>
