<svg width="24" height="24" viewBox="0 0 24 24" fill="#DDDDDD" xmlns="http://www.w3.org/2000/svg">
<path d="M3.6893 2.41822L4.78178 1.56201C4.78178 1.56201 6.06335 0.34035 7.0823 1.49936L9.18322 4.20372C9.18322 4.20372 10.1602 5.20611 9.18322 6.54262L7.80712 8.27592C7.80712 8.27592 7.63904 10.218 10.7484 13.3401C10.7484 13.3401 12.8703 15.5954 15.4545 16.3681L17.4504 14.8959C17.4504 14.8959 18.5639 13.8621 19.5828 14.6975L22.0724 16.6396C22.0724 16.6396 23.7952 17.7777 22.5451 19.3753L21.5577 20.5552C21.5577 20.5552 19.2572 22.8941 15.6751 21.6202C15.6751 21.6202 11.7989 20.7118 6.8512 15.9609C6.8617 15.9713 2.90145 12.2333 2.06108 6.98117C2.06108 6.98117 1.51484 4.05754 3.6893 2.41822Z" />
</svg>
